<?xml version="1.0" encoding="utf-8"?>
<!-- Generator: Adobe Illustrator 19.1.0, SVG Export Plug-In . SVG Version: 6.00 Build 0)  -->
<svg version="1.1" id="Icon_Heart" xmlns="http://www.w3.org/2000/svg" xmlns:xlink="http://www.w3.org/1999/xlink" x="0px" y="0px"
	 viewBox="-206 311 162 162" style="enable-background:new -206 311 162 162;" xml:space="preserve">
<style type="text/css">
	.st0{opacity:0.75;fill:none;stroke:#BDA180;stroke-width:2;enable-background:new    ;}
	.st1{opacity:0.75;fill:none;stroke:#BDA180;stroke-linecap:round;enable-background:new    ;}
	.st2{opacity:0.75;enable-background:new    ;}
	.st3{fill:#BDA180;}
</style>
<g id="Icon">
	<circle class="st0" cx="-125" cy="392" r="80"/>
	<path id="Ellipse_1_copy_3" class="st1" d="M-199,392c0-40.9,33.1-74,74-74 M-51,392c0,40.9-33.1,74-74,74"/>
	<path id="Ellipse_2_copy" class="st0" d="M-125,430c0,0-40-18-40-48.4c-0.1-11.8,9.4-21.5,21.2-21.6c7.8-0.1,15,4.1,18.8,10.8
		c5.8-10.3,18.9-13.9,29.2-8.1c6.8,3.8,10.9,11,10.8,18.8C-85,412-125,430-125,430z"/>
	<path id="Ellipse_2_copy_2" class="st1" d="M-158,382.6c0-8,6.5-14.6,14.5-14.6"/>
	<g id="Rectangle_1_copy_13" class="st2">
		<path class="st3" d="M-107.9,365c-0.3,0-0.6,0-1,0l-1.4,1.4l0,0c0.4,0.1,0.8,0.2,1.1,0.3l1.7-1.7C-107.6,365-107.8,365-107.9,365
			L-107.9,365z M-104.9,365.3l-2.2,2.2l0,0c0.3,0.1,0.6,0.3,1,0.5l2.4-2.4C-104.1,365.4-104.5,365.3-104.9,365.3L-104.9,365.3z
			 M-112.2,365.5c-0.6,0.1-1.2,0.3-1.7,0.5c0.4,0,0.8,0,1.2,0.1L-112.2,365.5L-112.2,365.5z M-113.9,366L-113.9,366
			C-113.9,366-113.9,366-113.9,366C-113.9,366-113.9,366-113.9,366L-113.9,366z M-101.6,366.2l-2.7,2.7c0.3,0.2,0.6,0.4,0.9,0.6
			l2.9-2.9C-100.9,366.4-101.2,366.3-101.6,366.2L-101.6,366.2z M-98.7,367.6l-3.1,3.2c0.3,0.2,0.5,0.4,0.7,0.7l3.3-3.3
			C-98.1,367.9-98.4,367.7-98.7,367.6L-98.7,367.6z M-96.2,369.3l-3.5,3.5c0.2,0.3,0.4,0.5,0.6,0.8l3.6-3.6
			C-95.7,369.8-96,369.5-96.2,369.3L-96.2,369.3z M-101.8,370.7L-101.8,370.7C-101.8,370.7-101.8,370.7-101.8,370.7L-101.8,370.7z
			 M-94.1,371.4l-3.8,3.8c0.2,0.3,0.4,0.6,0.5,0.9l3.9-3.9C-93.7,372-93.9,371.7-94.1,371.4L-94.1,371.4z M-92.3,373.9l-4.1,4.1
			c0.1,0.3,0.3,0.7,0.4,1l4.2-4.2C-92,374.5-92.2,374.2-92.3,373.9L-92.3,373.9z M-91,376.8l-4.5,4.4c0.1,0.4,0.1,0.8,0.2,1.2
			l4.6-4.6C-90.8,377.6-90.9,377.2-91,376.8L-91,376.8z M-90.2,380.3l-4.8,4.8c0,0.1,0,0.2,0,0.3c0,0.4,0,0.7,0,1.1l5-5
			C-90.1,381.1-90.1,380.7-90.2,380.3L-90.2,380.3z M-90.1,384.4l-5.2,5.2l0,0c-0.1,0.6-0.2,1.1-0.3,1.7l5.4-5.3
			C-90.2,385.5-90.1,384.9-90.1,384.4L-90.1,384.4z M-90.9,389.4l-5.7,5.7l0,0c-0.2,0.8-0.5,1.5-0.8,2.2l5.9-5.9
			C-91.2,390.8-91,390.1-90.9,389.4L-90.9,389.4z M-93.6,396.4l-6.7,6.7l0,0c-1,1.6-2.1,3.2-3.3,4.7l7.7-7.7
			C-95,398.9-94.3,397.7-93.6,396.4L-93.6,396.4z"/>
	</g>
</g>
</svg>
