<?xml version="1.0" encoding="utf-8"?>
<!-- Generator: Adobe Illustrator 19.1.0, SVG Export Plug-In . SVG Version: 6.00 Build 0)  -->
<svg version="1.1" id="Icon_Card" xmlns="http://www.w3.org/2000/svg" xmlns:xlink="http://www.w3.org/1999/xlink" x="0px" y="0px"
	 viewBox="-206 311 162 162" style="enable-background:new -206 311 162 162;" xml:space="preserve">
<style type="text/css">
	.st0{opacity:0.75;fill:none;stroke:#BDA180;stroke-width:2;enable-background:new    ;}
	.st1{opacity:0.75;fill:none;stroke:#BDA180;stroke-linecap:round;enable-background:new    ;}
	.st2{opacity:0.75;fill:none;stroke:#BDA180;stroke-width:2;stroke-linecap:round;enable-background:new    ;}
	.st3{opacity:0.75;enable-background:new    ;}
	.st4{fill:#BDA180;}
</style>
<g id="Icon">
	<circle class="st0" cx="-125" cy="392" r="80"/>
	<path id="Ellipse_1_copy_3" class="st1" d="M-199,392c0-40.9,33.1-74,74-74 M-51,392c0,40.9-33.1,74-74,74"/>
	<path class="st2" d="M-159,367h68c3.3,0,6,2.7,6,6v38c0,3.3-2.7,6-6,6h-68c-3.3,0-6-2.7-6-6v-38C-165,369.7-162.3,367-159,367z"/>
	<rect id="Rectangle_1_copy_2" x="-165" y="378" class="st1" width="80" height="10"/>
	<rect x="-151" y="395" class="st1" width="36" height="2"/>
	<rect id="Rectangle_2_copy" x="-106" y="395" class="st1" width="12" height="2"/>
	<g id="Rectangle_1_copy_12" class="st3">
		<path class="st4" d="M-95.1,407.5l-5,5L-95.1,407.5z M-108.6,412.5l5-5L-108.6,412.5L-108.6,412.5z M-107.8,407.5l-5,5
			L-107.8,407.5z M-125.6,412.5l4.6-4.6L-125.6,412.5L-125.6,412.5z M-133.3,407.5l-5,5L-133.3,407.5z M-142.5,412.5l4-4
			L-142.5,412.5z M-158.9,411.9l2.4-2.4L-158.9,411.9L-158.9,411.9z M-160.5,405l1.1-1.1l0,0L-160.5,405L-160.5,405z M-160.5,400.8
			l1-1l0,0L-160.5,400.8L-160.5,400.8z"/>
		<path class="st4" d="M-159,391h-0.9l-1.1,1.1v1.4l2-2V391L-159,391z M-159,394.3l-2,2v1.4l2-2V394.3L-159,394.3z M-159,398.6l-2,2
			v1.4l2-2V398.6L-159,398.6z M-159,402.8l-2,2v1.4l2.1-2.1c-0.1-0.4-0.1-0.8-0.1-1.1V402.8L-159,402.8z M-158.1,406.1l-2.9,2.9
			c0,0.4,0.1,0.8,0.2,1.2l3.5-3.5C-157.6,406.6-157.9,406.4-158.1,406.1L-158.1,406.1z M-89.7,407h-1.4l-6,6h1.4L-89.7,407
			L-89.7,407z M-93.9,407h-1.4l-6,6h1.4L-93.9,407L-93.9,407z M-98.1,407h-1.4l-6,6h1.4L-98.1,407L-98.1,407z M-102.4,407h-1.4l-6,6
			h1.4L-102.4,407L-102.4,407z M-106.6,407h-1.4l-6,6h1.4L-106.6,407L-106.6,407z M-110.9,407h-1.4l-6,6h1.4L-110.9,407L-110.9,407z
			 M-115.1,407h-1.4l-6,6h1.4L-115.1,407L-115.1,407z M-119.4,407h-1.4l-6,6h1.4L-119.4,407L-119.4,407z M-123.6,407h-1.4l-6,6h1.4
			L-123.6,407L-123.6,407z M-127.8,407h-1.4l-6,6h1.4L-127.8,407L-127.8,407z M-132.1,407h-1.4l-6,6h1.4L-132.1,407L-132.1,407z
			 M-136.3,407h-1.4l-6,6h1.4L-136.3,407L-136.3,407z M-140.6,407h-1.4l-6,6h1.4L-140.6,407L-140.6,407z M-144.8,407h-1.4l-6,6h1.4
			L-144.8,407L-144.8,407z M-149.1,407h-1.4l-6,6h1.4L-149.1,407L-149.1,407z M-153.3,407h-1.4l-5,5c0.3,0.2,0.5,0.4,0.8,0.6
			L-153.3,407L-153.3,407z M-89,409.2l-3.8,3.8c0.8,0,1.6-0.3,2.2-0.8l0.7-0.7C-89.3,410.8-89.1,410-89,409.2L-89,409.2z"/>
	</g>
</g>
</svg>
