<?xml version="1.0" encoding="utf-8"?>
<!-- Generator: Adobe Illustrator 19.1.0, SVG Export Plug-In . SVG Version: 6.00 Build 0)  -->
<svg version="1.1" id="Icon_Steak" xmlns="http://www.w3.org/2000/svg" xmlns:xlink="http://www.w3.org/1999/xlink" x="0px" y="0px"
	 viewBox="-206 311 162 162" style="enable-background:new -206 311 162 162;" xml:space="preserve">
<style type="text/css">
	.st0{opacity:0.75;fill:none;stroke:#BDA180;stroke-width:2;enable-background:new    ;}
	.st1{opacity:0.75;fill:none;stroke:#BDA180;stroke-linecap:round;enable-background:new    ;}
	.st2{opacity:0.75;fill:none;stroke:#BDA180;enable-background:new    ;}
	.st3{opacity:0.75;enable-background:new    ;}
	.st4{fill:#BDA180;}
</style>
<g id="Icon">
	<circle class="st0" cx="-125" cy="392" r="80"/>
	<path id="Ellipse_1_copy_3" class="st1" d="M-199,392c0-40.9,33.1-74,74-74 M-51,392c0,40.9-33.1,74-74,74"/>
	<path id="Ellipse_1_copy_5" class="st0" d="M-125,347c17.7,0,32,9.8,32,37.8c0,25.1-4.2,52.2-27.2,52.2
		c-16.8,0-22.2-11.4-25.3-28.7c-1.9-10.3-11.5-8-11.5-22.6C-157,357.5-142.7,347-125,347z"/>
	<path id="Ellipse_1_copy" class="st2" d="M-125,352c14.9,0,27,8.6,27,33.3c0,22.1-3.6,46.7-22.9,46.7c-14.1,0-17.3-11.6-19.9-26.8
		c-1.6-9.1-11.1-7-11.1-19.9C-152,360.5-139.9,352-125,352z"/>
	<g id="Rectangle_1_copy_11" class="st3">
		<path class="st4" d="M-143.5,366.5l-3.1,3.1c-0.2,0.6-0.4,1.2-0.6,1.8l3.3-3.3C-143.8,367.5-143.7,367-143.5,366.5L-143.5,366.5z
			 M-144.3,370.8l-3.7,3.7c-0.1,0.5-0.2,1-0.3,1.5l3.9-3.9v0C-144.3,371.7-144.3,371.2-144.3,370.8L-144.3,370.8z M-144.4,374.5
			l-4.2,4.2c0,0.4-0.1,0.9-0.1,1.3l4.4-4.4v0C-144.4,375.3-144.4,374.9-144.4,374.5L-144.4,374.5z M-144.3,377.9l-4.7,4.6
			c0,0.4,0,0.8,0,1.2l4.8-4.8C-144.2,378.7-144.3,378.3-144.3,377.9L-144.3,377.9z M-144,381.2l-5,5c0,0.4,0,0.8,0.1,1.1l5.2-5.1h0
			C-143.9,381.8-143.9,381.5-144,381.2L-144,381.2z M-143,383.8l-5.5,5.5c0.1,0.3,0.2,0.6,0.3,0.9l5.6-5.6h0
			C-142.8,384.3-142.9,384-143,383.8L-143,383.8z M-141.5,385.8l-5.9,5.9c0.2,0.2,0.3,0.5,0.5,0.7l6-5.9l0,0
			C-141.2,386.2-141.3,386-141.5,385.8L-141.5,385.8z M-139.8,387.6l-6,6c0.2,0.2,0.4,0.4,0.6,0.5l6-5.9l0,0
			C-139.4,388-139.6,387.8-139.8,387.6L-139.8,387.6z M-138,389.4l-5.8,5.7l0.7,0.5l5.6-5.6l0,0C-137.6,389.8-137.8,389.6-138,389.4
			L-138,389.4z M-136.3,391.3l-5.3,5.3c0.2,0.2,0.4,0.3,0.7,0.5l5.2-5.2l0,0C-136,391.7-136.1,391.5-136.3,391.3L-136.3,391.3z
			 M-134.8,393.4l-5,4.9c0.2,0.2,0.4,0.4,0.5,0.7l4.9-4.9l0,0C-134.5,393.9-134.7,393.6-134.8,393.4L-134.8,393.4z M-133.6,395.7
			l-4.8,4.8c0.1,0.3,0.2,0.6,0.3,0.9l4.9-4.9l0,0C-133.4,396.3-133.5,396-133.6,395.7L-133.6,395.7z M-132.8,398.5l-5,5
			c0.1,0.3,0.1,0.7,0.2,1l5-5l0,0C-132.7,399.2-132.8,398.8-132.8,398.5L-132.8,398.5z M-132.5,401.7l-4.9,4.8
			c0.1,0.3,0.1,0.7,0.2,1l4.7-4.7l0,0C-132.4,402.4-132.4,402-132.5,401.7L-132.5,401.7z M-132.3,405.1l-4.4,4.4
			c0.1,0.3,0.1,0.7,0.2,1l4.2-4.2v0C-132.3,405.8-132.3,405.5-132.3,405.1L-132.3,405.1z M-132.2,408.5l-3.9,3.9
			c0.1,0.3,0.2,0.6,0.2,0.9l3.8-3.7l0,0C-132.1,409.2-132.1,408.8-132.2,408.5L-132.2,408.5z M-131.8,411.7l-3.5,3.5
			c0.1,0.3,0.2,0.6,0.3,0.9l3.4-3.4l0,0C-131.7,412.4-131.8,412-131.8,411.7L-131.8,411.7z M-131.2,414.6l-3.2,3.2
			c0.1,0.3,0.2,0.6,0.3,0.8l3.2-3.2h0C-131,415.2-131.1,414.9-131.2,414.6L-131.2,414.6z M-130.2,417.2l-3.1,3.1
			c0.1,0.3,0.3,0.5,0.4,0.8l3.1-3.1l0,0C-130,417.7-130.1,417.5-130.2,417.2L-130.2,417.2z M-129,419.5l-3.1,3
			c0.2,0.2,0.3,0.5,0.5,0.7l3.1-3h0C-128.6,419.9-128.8,419.7-129,419.5L-129,419.5z M-127.3,421.4l-3.1,3.1
			c0.2,0.2,0.4,0.4,0.6,0.6l3.1-3.1h0C-126.9,421.8-127.1,421.6-127.3,421.4L-127.3,421.4z M-125.4,423l-3,3
			c0.2,0.1,0.5,0.3,0.7,0.4l3-3h0C-124.9,423.3-125.2,423.2-125.4,423L-125.4,423z M-123.1,424.3l-2.9,2.9c0.3,0.1,0.6,0.2,0.9,0.3
			l2.8-2.8h0C-122.6,424.6-122.9,424.5-123.1,424.3L-123.1,424.3z M-120.5,425.3l-2.6,2.6c0.4,0,0.7,0.1,1.1,0.1l2.4-2.4
			c-0.1,0-0.2,0-0.3-0.1v0C-120.2,425.5-120.4,425.4-120.5,425.3L-120.5,425.3z M-117.7,426l-1.9,1.9c0.5,0,0.9-0.1,1.4-0.2l1.6-1.6
			C-117,426.1-117.3,426.1-117.7,426L-117.7,426z M-116.6,426.2L-116.6,426.2C-116.6,426.2-116.6,426.2-116.6,426.2L-116.6,426.2
			L-116.6,426.2z M-114,426.2L-114,426.2C-114,426.2-114,426.2-114,426.2C-114,426.2-114,426.2-114,426.2L-114,426.2z M-114,426.2
			c-0.1,0-0.2,0-0.3,0l-0.3,0.3C-114.4,426.4-114.2,426.3-114,426.2L-114,426.2z"/>
	</g>
	<path id="Ellipse_1_copy_2" class="st0" d="M-125,373c2.8,0,5,1.3,5,5c0,3.3-0.7,7-4.3,7c-2.6,0-3.2-1.7-3.7-4
		c-0.3-1.4-2.1-1.1-2.1-3C-130,374.3-127.8,373-125,373z"/>
</g>
</svg>
