<svg xmlns="http://www.w3.org/2000/svg" width="512" height="512" viewBox="0 0 64 64" style="enable-background:new 0 0 512 512" xml:space="preserve"><g fill="#B59A7B"><path d="M24.5 22a3.5 3.5 0 0 0 3.5-3.5V12h-2v6.5a1.5 1.5 0 0 1-3 0 1.42 1.42 0 0 1 .789-1.276l.658-.329-.894-1.79-.658.33A3.407 3.407 0 0 0 21 18.5a3.5 3.5 0 0 0 3.5 3.5Zm5.5-4h2v-.172a7.883 7.883 0 0 0-2.293-5.535l-1.414 1.414A5.868 5.868 0 0 1 30 17.828Z" data-original="#000000"/><path d="M29 22a7.014 7.014 0 0 0 6.675-4.888l.618 1.444A4.031 4.031 0 0 0 40 21h2a1 1 0 0 0 1-1v-1a4 4 0 0 0-4-4v2a2 2 0 0 1 2 2h-1a2.032 2.032 0 0 1-1.869-1.232l-2.212-5.162A1 1 0 0 0 34 13v2a5.006 5.006 0 0 1-5 5Z" data-original="#000000"/><path d="M60 51.011H45.832q.345-.348.665-.721l.088-.1A10.048 10.048 0 0 0 49 43.638v-3.224L52.414 37H54a3 3 0 0 0 0-6 3 3 0 0 0-6 0v1.586L44.586 36h-3.245a10.035 10.035 0 0 0-6.528 2.415A13.766 13.766 0 0 0 30 48.879a6.127 6.127 0 0 0 .4 2.132h-7.568q.345-.348.665-.721l.088-.1A10.048 10.048 0 0 0 26 43.638v-3.224L29.414 37H31a2.956 2.956 0 0 0 2.944-3.53l3.47-3.47H43a1 1 0 0 0 1-1v-5.531l5.641-4.7a1 1 0 0 0 0-1.538L44 12.531V7a1 1 0 0 0-1-1h-5.586l-4.707-4.708a1.029 1.029 0 0 0-1.414 0L26.586 6H21a1 1 0 0 0-1 1v5.531l-5.641 4.7a1 1 0 0 0 0 1.538l5.641 4.7V29a1 1 0 0 0 1 1h4.18a2.975 2.975 0 0 0-.18 1v1.586L21.586 36h-3.245a10.035 10.035 0 0 0-6.528 2.415A13.766 13.766 0 0 0 7 48.879a6.132 6.132 0 0 0 .4 2.132H4a3 3 0 0 0 0 6h8.586l3.586 3.589A8.191 8.191 0 0 0 22 63.011h20a8.191 8.191 0 0 0 5.828-2.411l3.586-3.586H60a3 3 0 0 0 0-6Zm-10.293-17.3A1 1 0 0 0 50 33v-2a1 1 0 0 1 2 0v1a1 1 0 0 0 1 1h1a1 1 0 0 1 0 2h-2a1 1 0 0 0-.707.293L48 38.586 46.414 37ZM32 48.879a11.77 11.77 0 0 1 4.114-8.945A8.039 8.039 0 0 1 41.341 38h3.245L47 40.414v3.227a8.038 8.038 0 0 1-1.936 5.243l.759.651-.847-.548a11.485 11.485 0 0 1-2.29 2.024H32.609A4.134 4.134 0 0 1 32 48.879ZM21.641 22.231 16.562 18l5.079-4.231A1 1 0 0 0 22 13V8h5a1 1 0 0 0 .707-.293L32 3.413l4.293 4.294A1 1 0 0 0 37 8h5v5a1 1 0 0 0 .359.769L47.438 18l-5.079 4.231A1 1 0 0 0 42 23v5h-5a1 1 0 0 0-.707.293L32 32.586l-4.293-4.293A1 1 0 0 0 27 28h-5v-5a1 1 0 0 0-.359-.769Zm5.066 11.476A1 1 0 0 0 27 33v-2a.992.992 0 0 1 .123-.462l4.17 4.169a.981.981 0 0 0 .208.139A.969.969 0 0 1 31 35h-2a1 1 0 0 0-.707.293L25 38.586 23.414 37ZM9 48.879a11.77 11.77 0 0 1 4.114-8.945A8.039 8.039 0 0 1 18.341 38h3.245L24 40.414v3.227a8.038 8.038 0 0 1-1.936 5.243l.759.651-.847-.548a11.479 11.479 0 0 1-2.289 2.024H9.609A4.139 4.139 0 0 1 9 48.879Zm37.414 10.3A6.206 6.206 0 0 1 42 61.011H22a6.206 6.206 0 0 1-4.414-1.828l-2.172-2.172h33.172ZM60 55.011H4a1 1 0 0 1 0-2h56a1 1 0 0 1 0 2Z" data-original="#000000"/></g></svg>