<svg xmlns="http://www.w3.org/2000/svg" width="512" height="512" viewBox="0 0 64 64" style="enable-background:new 0 0 512 512" xml:space="preserve"><g fill="#B59A7B"><path d="M39 46.5a1.5 1.5 0 0 1-3 0 1.42 1.42 0 0 1 .789-1.276l.658-.329-.894-1.79-.658.33A3.407 3.407 0 0 0 34 46.5a3.5 3.5 0 0 0 7 0V40h-2Zm4-.5h2v-.171a7.777 7.777 0 0 0-2.293-5.536l-1.414 1.414A5.793 5.793 0 0 1 43 45.829Z" data-original="#000000"/><path d="M52 43v2a2 2 0 0 1 2 2h-1a2.032 2.032 0 0 1-1.869-1.231l-2.212-5.163A1 1 0 0 0 47 41v2a5.006 5.006 0 0 1-5 5v2a7.012 7.012 0 0 0 6.674-4.888l.619 1.445A4.03 4.03 0 0 0 53 49h2a1 1 0 0 0 1-1v-1a4 4 0 0 0-4-4Z" data-original="#000000"/><path d="M57 40.531V35a1 1 0 0 0-1-1h-5.586l-4.707-4.707a1 1 0 0 0-1.414 0l-2.312 2.312a34.314 34.314 0 0 0-2.3-11.592l-1.518-3.93A23.721 23.721 0 0 0 16.177 1 15.175 15.175 0 0 0 4.754 26.169l2.6 2.976a2.6 2.6 0 0 1 .115 3.279l-1.085 1.433a16.643 16.643 0 0 0 .262 20.455l2.829 3.537a13.727 13.727 0 0 0 20.778.764l2.54-2.734c.071-.076.137-.157.207-.233V57a1 1 0 0 0 1 1h5.586l4.707 4.708a1 1 0 0 0 1.414 0L50.414 58H56a1 1 0 0 0 1-1v-5.531l5.641-4.7a1 1 0 0 0 0-1.538ZM31.327 54.519l-2.539 2.733a11.727 11.727 0 0 1-17.751-.652l-2.828-3.538a14.639 14.639 0 0 1-.231-18l1.087-1.433a4.6 4.6 0 0 0-.2-5.805l-2.6-2.975A13.175 13.175 0 0 1 16.175 3 21.713 21.713 0 0 1 36.3 16.8l1.517 3.929A32.317 32.317 0 0 1 40 32.431c0 .4-.014.789-.028 1.183l-.386.386h-1.633A31.02 31.02 0 0 0 38 32.392 30.447 30.447 0 0 0 36.032 21.6l-1.587-4.2A19.255 19.255 0 0 0 16.521 5h-.454A11.038 11.038 0 0 0 8.2 8.244 10.88 10.88 0 0 0 5 16v.192a11.168 11.168 0 0 0 2.765 7.344l2.605 2.978a6.6 6.6 0 0 1 .291 8.332L9.57 36.275a12.643 12.643 0 0 0 .2 15.538l2.83 3.537a9.727 9.727 0 0 0 14.723.542l2.512-2.705a30.653 30.653 0 0 0 2.123-2.587l1.042.869v1.088a33.234 33.234 0 0 1-1.673 1.962Zm-3.968-7.75 3.061 2.55a28.559 28.559 0 0 1-2.051 2.506l-2.512 2.7a7.726 7.726 0 0 1-11.7-.43l-2.829-3.537a10.64 10.64 0 0 1-.168-13.079l1.088-1.433A8.656 8.656 0 0 0 14 30.854a8.6 8.6 0 0 0-2.127-5.661l-2.6-2.977A9.171 9.171 0 0 1 7 16.187V16a8.894 8.894 0 0 1 2.615-6.343A9.048 9.048 0 0 1 16.067 7h.454a17.245 17.245 0 0 1 16.053 11.1l1.587 4.205A28.463 28.463 0 0 1 36 32.392c0 .532-.041 1.071-.071 1.608H34a1 1 0 0 0-1 1v5.531l-5.641 4.7a1 1 0 0 0 0 1.538Zm28 3.462A1 1 0 0 0 55 51v5h-5a1 1 0 0 0-.707.293L45 60.587l-4.293-4.294A1 1 0 0 0 40 56h-5v-5a1 1 0 0 0-.359-.769L29.562 46l5.079-4.231A1 1 0 0 0 35 41v-5h5a1 1 0 0 0 .707-.293L45 31.414l4.293 4.293A1 1 0 0 0 50 36h5v5a1 1 0 0 0 .359.769L60.438 46Z" data-original="#000000"/><path d="M17 11a5 5 0 1 0 5 5 5.006 5.006 0 0 0-5-5Zm0 8a3 3 0 1 1 3-3 3 3 0 0 1-3 3Z" data-original="#000000"/></g></svg>