<svg id="Icon_ISO_03" data-name="Icon ISO 03" xmlns="http://www.w3.org/2000/svg" width="162" height="162" viewBox="0 0 162 162">
  <defs>
    <style>
      .cls-1, .cls-2 {
        fill: none;
        stroke: #bda180;
        opacity: 0.5;
      }

      .cls-1 {
        stroke-width: 2px;
      }

      .cls-2 {
        stroke-width: 1px;
      }

      .cls-2, .cls-3 {
        fill-rule: evenodd;
      }

      .cls-3 {
        fill: #bda180;
      }
    </style>
  </defs>
  <circle class="cls-1" cx="81" cy="81" r="80"/>
  <circle id="Ellipse_2_copy_3" data-name="Ellipse 2 copy 3" class="cls-1" cx="81" cy="81" r="53.344"/>
  <path id="Rectangle_6_copy_2" data-name="Rectangle 6 copy 2" class="cls-2" d="M550.222,344.671l5.33,5.329-5.33,5.33L544.893,350Z" transform="translate(-535 -269)"/>
  <path id="Rectangle_6_copy_3" data-name="Rectangle 6 copy 3" class="cls-2" d="M680.889,344.671l5.33,5.329-5.33,5.33-5.33-5.33Z" transform="translate(-535 -269)"/>
  <path class="cls-2" d="M609.063,393.906a44.452,44.452,0,0,1,.107-87.829" transform="translate(-535 -269)"/>
  <path id="Ellipse_3_copy_3" data-name="Ellipse 3 copy 3" class="cls-2" d="M610.432,385.122a35.562,35.562,0,0,1-.2-70.212" transform="translate(-535 -269)"/>
  <path id="Ellipse_3_copy_4" data-name="Ellipse 3 copy 4" class="cls-2" d="M611.409,376.273a26.672,26.672,0,0,1-.162-52.517" transform="translate(-535 -269)"/>
  <path id="Ellipse_3_copy_5" data-name="Ellipse 3 copy 5" class="cls-2" d="M613.319,367.577a17.781,17.781,0,0,1-.179-35.126" transform="translate(-535 -269)"/>
  <path id="Certificate" class="cls-3" d="M559.073,321.16a3.012,3.012,0,0,1,.119.491,2.147,2.147,0,0,1,.017.482,2.522,2.522,0,0,1-.1.513,4.253,4.253,0,0,1-.22.577,2.648,2.648,0,0,1-.618.864,2.355,2.355,0,0,1-.884.517,2.807,2.807,0,0,1-1.094.115,3.669,3.669,0,0,1-1.244-.343,3.785,3.785,0,0,1-1.068-.7,2.747,2.747,0,0,1-.634-0.9,2.38,2.38,0,0,1-.189-1.016,2.773,2.773,0,0,1,.264-1.07,2.841,2.841,0,0,1,.438-0.708,2.776,2.776,0,0,1,.444-0.413,3.763,3.763,0,0,1,.361-0.234,0.419,0.419,0,0,0,.193-0.17,0.24,0.24,0,0,0,.025-0.138,0.3,0.3,0,0,0-.046-0.112l-0.29-.507a3.62,3.62,0,0,0-1.1.7,3.7,3.7,0,0,0-.836,1.2,3.929,3.929,0,0,0-.373,1.5,3.431,3.431,0,0,0,.239,1.408,3.63,3.63,0,0,0,.807,1.211,4.466,4.466,0,0,0,1.328.906,4.618,4.618,0,0,0,1.549.42,3.586,3.586,0,0,0,1.429-.156,3.267,3.267,0,0,0,1.2-.71,3.773,3.773,0,0,0,.881-1.239,3.9,3.9,0,0,0,.4-1.6,3.268,3.268,0,0,0-.3-1.388l-0.573.19a0.2,0.2,0,0,0-.125.107,0.278,0.278,0,0,0,0,.2h0ZM560,308.12l5.978,4.763,2.934-3.683-0.655-.529-2.294,2.878-2.039-1.625,1.854-2.328-0.634-.5-1.854,2.327-1.986-1.582,2.29-2.873-0.659-.526Zm15.51-9.535a0.713,0.713,0,0,1,.289-0.153,0.594,0.594,0,0,1,.267.026l3.241,0.943a0.453,0.453,0,0,0,.463-0.082l0.725-.562-3.621-1.033a1.2,1.2,0,0,0-.469-0.048,2.743,2.743,0,0,0,.444-0.719,2.231,2.231,0,0,0,.174-0.742,2,2,0,0,0-.094-0.727,2.2,2.2,0,0,0-.363-0.677,2.246,2.246,0,0,0-.668-0.592,1.7,1.7,0,0,0-.813-0.217,2.4,2.4,0,0,0-.949.2,4.748,4.748,0,0,0-1.08.652l-1.707,1.323,4.682,6.041,0.813-.631-1.954-2.52Zm-2.848-2.394,0.894-.693a2.173,2.173,0,0,1,1.275-.549,1.218,1.218,0,0,1,.984.539,1.553,1.553,0,0,1,.283.556,1.273,1.273,0,0,1,.016.592,1.62,1.62,0,0,1-.265.6,2.631,2.631,0,0,1-.559.572l-0.86.666Zm12.015-8.758,0.356,0.793,2.262-1.016,2.774,6.179,0.939-.421-2.774-6.18,2.258-1.013-0.356-.793Zm17.3-5.919-1.012.214,1.582,7.477,1.012-.214Zm12.109-1.439-0.124,7.642L615,287.733l0.053-3.285,3.141,0.051,0.014-.842-3.141-.051,0.043-2.672,3.674,0.06,0.014-.843Zm16.953,1.653-1.012-.214-1.582,7.477,1.012,0.214Zm13.782,11.334a3.037,3.037,0,0,1-.491.119,2.1,2.1,0,0,1-.483.017,2.543,2.543,0,0,1-.513-0.1,4.253,4.253,0,0,1-.577-0.22,2.66,2.66,0,0,1-.864-0.617,2.371,2.371,0,0,1-.517-0.884,2.809,2.809,0,0,1-.116-1.094,3.675,3.675,0,0,1,.343-1.245,3.8,3.8,0,0,1,.7-1.068,2.747,2.747,0,0,1,.9-0.634,2.366,2.366,0,0,1,1.016-.19,2.789,2.789,0,0,1,1.07.263,2.693,2.693,0,0,1,1.122.882,3.545,3.545,0,0,1,.233.362,0.427,0.427,0,0,0,.17.192,0.236,0.236,0,0,0,.139.025,0.271,0.271,0,0,0,.111-0.046l0.508-.29a3.626,3.626,0,0,0-.705-1.1,3.689,3.689,0,0,0-1.2-.836,3.909,3.909,0,0,0-1.5-.372,3.415,3.415,0,0,0-1.408.239,3.6,3.6,0,0,0-1.21.808,4.424,4.424,0,0,0-.906,1.327,4.623,4.623,0,0,0-.42,1.55,3.622,3.622,0,0,0,.156,1.429,3.3,3.3,0,0,0,.711,1.2,3.79,3.79,0,0,0,1.24.88,3.891,3.891,0,0,0,1.6.4,3.272,3.272,0,0,0,1.388-.3l-0.19-.573a0.2,0.2,0,0,0-.107-0.125,0.278,0.278,0,0,0-.2,0h0Zm15.541,2.922-0.812-.658-7.184,4.017,0.621,0.5a0.343,0.343,0,0,0,.221.082,0.371,0.371,0,0,0,.2-0.055l1.717-.984,2.665,2.158-0.606,1.883a0.438,0.438,0,0,0-.011.218,0.349,0.349,0,0,0,.13.195l0.622,0.5Zm-1.655.849a3.249,3.249,0,0,0,.293-0.178c0.106-.072.216-0.151,0.331-0.236q-0.085.2-.156,0.375c-0.047.117-.084,0.224-0.112,0.32l-1.024,3.172-2.217-1.8Zm10.8,8.1-0.688.531,1.517,1.963-5.36,4.141,0.629,0.814,5.36-4.141,1.513,1.958,0.688-.531Zm9.456,14.62-6.976,3.122,1.924,4.3,0.771-.339-1.5-3.359,2.38-1.065,1.216,2.716,0.74-.331-1.216-2.716,2.317-1.037,1.5,3.354,0.77-.345Z" transform="translate(-535 -269)"/>
  <path id="GS1_212_86" data-name="GS1 №212 86" class="cls-3" d="M551.367,380.119l2.707-1.129-0.9-2.166-0.541.226a0.193,0.193,0,0,0-.11.112,0.228,0.228,0,0,0,.009.173l0.458,1.1-1.556.649c-0.118-.1-0.227-0.2-0.329-0.3a3.222,3.222,0,0,1-.286-0.326,3.862,3.862,0,0,1-.252-0.377,3.666,3.666,0,0,1-.222-0.448,3.4,3.4,0,0,1-.278-1.207,2.5,2.5,0,0,1,.2-1.087,2.7,2.7,0,0,1,.666-0.913,4.09,4.09,0,0,1,2.339-.985,2.656,2.656,0,0,1,1.094.156,2.47,2.47,0,0,1,.9.59,3.091,3.091,0,0,1,.644,1,3.673,3.673,0,0,1,.231.733,3.341,3.341,0,0,1,.061.582,2.587,2.587,0,0,1-.035.45c-0.023.129-.041,0.243-0.054,0.341a0.31,0.31,0,0,0,.046.243,0.3,0.3,0,0,0,.195.113l0.546,0.09a3.719,3.719,0,0,0,.168-0.642,3.487,3.487,0,0,0,.045-0.683,3.972,3.972,0,0,0-.1-0.739,5.065,5.065,0,0,0-.263-0.8,4.432,4.432,0,0,0-.885-1.388,3.478,3.478,0,0,0-1.21-.83,3.521,3.521,0,0,0-1.441-.246,4.435,4.435,0,0,0-1.577.361,4.286,4.286,0,0,0-1.353.87,3.491,3.491,0,0,0-.829,1.221,3.679,3.679,0,0,0-.251,1.477,4.606,4.606,0,0,0,.378,1.646,4.748,4.748,0,0,0,.74,1.243,4.293,4.293,0,0,0,1.047.9h0Zm13.569,10.016a2.752,2.752,0,0,0-.082-1.093,3.216,3.216,0,0,0-.534-1.055,2.707,2.707,0,0,0-.746-0.705,2.233,2.233,0,0,0-.819-0.314,2,2,0,0,0-.813.034,2.2,2.2,0,0,0-1.31.977,1.71,1.71,0,0,0-.213.674,2.178,2.178,0,0,0,.051.693,7.093,7.093,0,0,0,.2.691c0.077,0.225.154,0.448,0.231,0.666a2.858,2.858,0,0,1,.147.622,1.3,1.3,0,0,1-.05.552,0.958,0.958,0,0,1-.361.466,1.482,1.482,0,0,1-.522.256,1.245,1.245,0,0,1-.536.017,1.393,1.393,0,0,1-.52-0.221,1.957,1.957,0,0,1-.473-0.465,2.25,2.25,0,0,1-.271-0.457,2.224,2.224,0,0,1-.137-0.42,2.061,2.061,0,0,1-.046-0.375c0-.117,0-0.223,0-0.317s0-.175-0.006-0.244a0.306,0.306,0,0,0-.049-0.16,0.246,0.246,0,0,0-.114-0.085,0.374,0.374,0,0,0-.141-0.024l-0.572.053a3.185,3.185,0,0,0,.038,1.269,3.307,3.307,0,0,0,.594,1.247,2.962,2.962,0,0,0,.8.759,2.321,2.321,0,0,0,.892.339,2.167,2.167,0,0,0,.912-0.057,2.578,2.578,0,0,0,.857-0.426,1.837,1.837,0,0,0,.547-0.6,1.7,1.7,0,0,0,.192-0.662,2.4,2.4,0,0,0-.054-0.692c-0.052-.234-0.116-0.466-0.19-0.7s-0.148-.455-0.22-0.674a3.184,3.184,0,0,1-.143-0.625,1.355,1.355,0,0,1,.04-0.548,0.866,0.866,0,0,1,.331-0.444,1.2,1.2,0,0,1,.429-0.206,1.028,1.028,0,0,1,.462-0.009,1.311,1.311,0,0,1,.468.2,1.85,1.85,0,0,1,.44.433,1.911,1.911,0,0,1,.3.557,2.45,2.45,0,0,1,.105.475c0.015,0.141.022,0.263,0.023,0.365a0.377,0.377,0,0,0,.054.225,0.227,0.227,0,0,0,.114.085,0.394,0.394,0,0,0,.158.012Zm3.158,13.3,3.14,2.631,0.466-.556-1.153-.966L575,399.225l-0.593-.5-3.009.046-0.035.506a0.245,0.245,0,0,0,.015.1,0.287,0.287,0,0,0,.056.1,0.339,0.339,0,0,0,.1.08,0.308,0.308,0,0,0,.152.034l1.793-.022c-0.116.122-.221,0.239-0.317,0.354l-3.347,3.994-1.255-1.052Zm27.676,7.294-1.724,7.445,0.883,0.205,1.229-5.305c0.016-.069.031-0.146,0.045-0.23s0.027-.169.04-0.254l3.015,6.6a0.47,0.47,0,0,0,.12.176,0.458,0.458,0,0,0,.191.088l0.509,0.118,1.725-7.446-0.884-.2L599.7,417.19c-0.019.08-.035,0.164-0.05,0.251s-0.03.178-.043,0.27l-3.012-6.616a0.533,0.533,0,0,0-.116-0.172,0.459,0.459,0,0,0-.192-0.08Zm10.077,3.328a1.612,1.612,0,0,0-.22-0.621,1.658,1.658,0,0,0-.455-0.48,1.958,1.958,0,0,0-1.385-.321,1.593,1.593,0,0,0-1.083.694,2,2,0,0,0-.315,1.358,1.608,1.608,0,0,0,.219.617,1.626,1.626,0,0,0,.45.48,1.823,1.823,0,0,0,.661.29,1.855,1.855,0,0,0,.723.031,1.648,1.648,0,0,0,.62-0.232,1.625,1.625,0,0,0,.471-0.457,1.912,1.912,0,0,0,.279-0.653A1.883,1.883,0,0,0,605.847,414.052Zm-1.2,1.259a1.067,1.067,0,0,1-1.426-.33,1.144,1.144,0,0,1-.08-0.848,1.159,1.159,0,0,1,.446-0.734,0.941,0.941,0,0,1,.776-0.122,0.952,0.952,0,0,1,.651.452,1.168,1.168,0,0,1,.075.855A1.149,1.149,0,0,1,604.644,415.311Zm-2.912,1.7,3.346,0.775,0.156-.67-3.347-.775Zm15.83-3.488a2.293,2.293,0,0,0-.728.451,2.256,2.256,0,0,0-.509.7,2.783,2.783,0,0,0-.243.939l0.5,0.06a0.5,0.5,0,0,0,.3-0.05,0.43,0.43,0,0,0,.16-0.257,1.449,1.449,0,0,1,.158-0.467,1.394,1.394,0,0,1,.3-0.376,1.464,1.464,0,0,1,.422-0.259,1.642,1.642,0,0,1,.534-0.113,1.718,1.718,0,0,1,.542.055,1.211,1.211,0,0,1,.447.226,1.149,1.149,0,0,1,.311.4,1.5,1.5,0,0,1,.137.583,2.013,2.013,0,0,1-.064.636,2.688,2.688,0,0,1-.241.6,4.246,4.246,0,0,1-.4.595c-0.157.2-.332,0.406-0.524,0.622l-2.319,2.58a0.575,0.575,0,0,0-.123.2,0.546,0.546,0,0,0-.032.21l0.016,0.325,5.092-.26-0.029-.575a0.316,0.316,0,0,0-.1-0.23,0.331,0.331,0,0,0-.249-0.078l-2.557.131a2.529,2.529,0,0,0-.419.056,3.956,3.956,0,0,0-.427.115l1.909-2.159q0.3-.336.572-0.665a5.321,5.321,0,0,0,.47-0.67,3.1,3.1,0,0,0,.311-0.713,2.357,2.357,0,0,0,.087-0.8,2.172,2.172,0,0,0-.221-0.886,1.953,1.953,0,0,0-.519-0.644,2.132,2.132,0,0,0-.751-0.381,2.787,2.787,0,0,0-.913-0.1A2.834,2.834,0,0,0,617.562,413.522Zm16.129,5.2,3.927-1.165-0.206-.695-1.442.428L634,410.642l-0.741.219-1.624,2.535,0.4,0.309a0.293,0.293,0,0,0,.094.044,0.309,0.309,0,0,0,.117.01,0.333,0.333,0,0,0,.122-0.039,0.3,0.3,0,0,0,.112-0.109l0.972-1.506c0.037,0.163.077,0.316,0.12,0.46l1.482,5-1.57.466Zm12.565-13.291a2.311,2.311,0,0,0-.441.734,2.247,2.247,0,0,0-.131.857,2.762,2.762,0,0,0,.213.946l0.472-.176a0.492,0.492,0,0,0,.248-0.184,0.427,0.427,0,0,0,.025-0.3,1.422,1.422,0,0,1-.073-0.488,1.4,1.4,0,0,1,.093-0.471,1.433,1.433,0,0,1,.257-0.423,1.626,1.626,0,0,1,.423-0.345,1.741,1.741,0,0,1,.507-0.2,1.222,1.222,0,0,1,.5,0,1.16,1.16,0,0,1,.462.216,1.523,1.523,0,0,1,.388.456,2.033,2.033,0,0,1,.235.595,2.736,2.736,0,0,1,.058.642,4.156,4.156,0,0,1-.081.71q-0.073.372-.181,0.792l-0.881,3.356a0.59,0.59,0,0,0-.016.238,0.548,0.548,0,0,0,.067.2l0.164,0.281,4.408-2.561-0.289-.5a0.319,0.319,0,0,0-.2-0.158,0.335,0.335,0,0,0-.258.045l-2.214,1.286a2.75,2.75,0,0,0-.346.242,3.852,3.852,0,0,0-.327.3l0.709-2.793q0.115-.438.2-0.853a5.35,5.35,0,0,0,.112-0.811,3.133,3.133,0,0,0-.05-0.776,2.391,2.391,0,0,0-.287-0.749,2.169,2.169,0,0,0-.6-0.686,1.928,1.928,0,0,0-.756-0.335,2.114,2.114,0,0,0-.842,0,2.773,2.773,0,0,0-.856.331A2.84,2.84,0,0,0,646.256,405.43Zm27.307-14.958a2.382,2.382,0,0,0,.12-0.914,1.978,1.978,0,0,0-.25-0.828,2.092,2.092,0,0,0-.625-0.68,1.871,1.871,0,0,0-1.21-.394,2.091,2.091,0,0,0-1.192.5,1.865,1.865,0,0,0-.017-1.127,1.816,1.816,0,0,0-.685-0.871,1.892,1.892,0,0,0-1.532-.316,2.231,2.231,0,0,0-.772.346,2.968,2.968,0,0,0-1.1,1.538,2.2,2.2,0,0,0-.077.84,1.889,1.889,0,0,0,.793,1.348,1.736,1.736,0,0,0,2.117.02,2.094,2.094,0,0,0-.086,1.289,1.869,1.869,0,0,0,.763,1.018,2.119,2.119,0,0,0,.844.375,1.925,1.925,0,0,0,.864-0.031,2.423,2.423,0,0,0,.829-0.41,3.464,3.464,0,0,0,.732-0.762A3.388,3.388,0,0,0,673.563,390.472Zm-1.574.982a1.434,1.434,0,0,1-.531.237,1.27,1.27,0,0,1-.552-0.008,1.51,1.51,0,0,1-.538-0.251,1.579,1.579,0,0,1-.473-0.5,1.246,1.246,0,0,1-.166-0.551,1.479,1.479,0,0,1,.086-0.565,2.173,2.173,0,0,1,.284-0.538,2.148,2.148,0,0,1,.418-0.442,1.458,1.458,0,0,1,.507-0.264,1.233,1.233,0,0,1,.575-0.021,1.587,1.587,0,0,1,.625.286,1.515,1.515,0,0,1,.411.429,1.267,1.267,0,0,1,.186.52,1.43,1.43,0,0,1-.053.578,2.038,2.038,0,0,1-.305.605A2.006,2.006,0,0,1,671.989,391.454Zm-2.974-2.168a1.142,1.142,0,0,1-.991.115,1.753,1.753,0,0,1-.455-0.234,1.433,1.433,0,0,1-.357-0.364,1.156,1.156,0,0,1-.181-0.451,1.216,1.216,0,0,1,.025-0.513,1.827,1.827,0,0,1,.7-0.976,1.222,1.222,0,0,1,.477-0.19,1.159,1.159,0,0,1,.486.027,1.426,1.426,0,0,1,.459.22,1.727,1.727,0,0,1,.368.356,1.142,1.142,0,0,1,.211.974A1.821,1.821,0,0,1,669.015,389.286Zm5.649-17.107-0.316.781a0.672,0.672,0,0,0-.051.305,0.6,0.6,0,0,0,.074.251l1.692,2.777a5.225,5.225,0,0,0,.86,1.109,2.963,2.963,0,0,0,.909.606,3.1,3.1,0,0,0,1.069.238,2.323,2.323,0,0,0,.951-0.162,2.225,2.225,0,0,0,.783-0.544,3.048,3.048,0,0,0,.782-1.959,2.469,2.469,0,0,0-.18-0.964,2.4,2.4,0,0,0-.531-0.793,2.516,2.516,0,0,0-.838-0.545,2.448,2.448,0,0,0-.966-0.194,2.111,2.111,0,0,0-.845.185,2.064,2.064,0,0,0-.679.5,2.5,2.5,0,0,0-.469.754,2.36,2.36,0,0,0-.17.7,2.3,2.3,0,0,0,.045.665c-0.05-.085-0.1-0.171-0.155-0.258s-0.106-.179-0.158-0.277Zm3.145,4.712a1.514,1.514,0,0,1-.351-0.5,1.575,1.575,0,0,1-.13-0.619,1.753,1.753,0,0,1,.138-0.692,1.854,1.854,0,0,1,.35-0.567,1.462,1.462,0,0,1,.491-0.356,1.426,1.426,0,0,1,.6-0.117,1.831,1.831,0,0,1,.669.143,1.729,1.729,0,0,1,.559.355,1.512,1.512,0,0,1,.352.51,1.564,1.564,0,0,1,.117.623,1.883,1.883,0,0,1-.147.691,1.8,1.8,0,0,1-.364.581,1.4,1.4,0,0,1-.5.338,1.458,1.458,0,0,1-.6.093,1.984,1.984,0,0,1-.663-0.152A1.643,1.643,0,0,1,677.809,376.891Z" transform="translate(-535 -269)"/>
  <path id="GS1" class="cls-3" d="M619.61,354.089v-3.577h-2.774v0.4a0.151,0.151,0,0,0,.054.114,0.184,0.184,0,0,0,.131.05h1.927v2.709q-0.334.192-.657,0.345a5.057,5.057,0,0,1-.669.259,4.479,4.479,0,0,1-.725.16,5.92,5.92,0,0,1-.829.054,5.111,5.111,0,0,1-1.841-.313,3.808,3.808,0,0,1-1.391-.9,3.929,3.929,0,0,1-.874-1.437,5.624,5.624,0,0,1-.3-1.9,5.526,5.526,0,0,1,.3-1.885,3.97,3.97,0,0,1,.86-1.422,3.752,3.752,0,0,1,1.351-.9,4.79,4.79,0,0,1,1.774-.313,5.032,5.032,0,0,1,1.256.135,4.7,4.7,0,0,1,.864.306,3.179,3.179,0,0,1,.547.327,1.436,1.436,0,0,0,.306.2,0.205,0.205,0,0,0,.3-0.078l0.2-.313a5.38,5.38,0,0,0-.7-0.516,4.308,4.308,0,0,0-.782-0.376,4.992,4.992,0,0,0-.907-0.232,6.741,6.741,0,0,0-1.063-.078,5.7,5.7,0,0,0-2.1.366,4.417,4.417,0,0,0-2.6,2.66,6.484,6.484,0,0,0,.007,4.235,4.513,4.513,0,0,0,1.031,1.625,4.6,4.6,0,0,0,1.625,1.038,5.951,5.951,0,0,0,2.148.366,6.072,6.072,0,0,0,1.92-.284,6.173,6.173,0,0,0,1.607-.818h0Zm14.584-8.178a3.366,3.366,0,0,0-1.134-.761,3.753,3.753,0,0,0-1.4-.249,3.338,3.338,0,0,0-1.241.217,2.765,2.765,0,0,0-.914.576,2.424,2.424,0,0,0-.562.829,2.543,2.543,0,0,0-.192.974,2.377,2.377,0,0,0,.217,1.077,2.156,2.156,0,0,0,.573.718,3.19,3.19,0,0,0,.807.473q0.451,0.186.928,0.334t0.928,0.306a3.728,3.728,0,0,1,.807.388,1.86,1.86,0,0,1,.572.576,1.619,1.619,0,0,1,.217.878,2.472,2.472,0,0,1-.171.921,2.082,2.082,0,0,1-.494.743,2.331,2.331,0,0,1-.793.494,2.938,2.938,0,0,1-1.066.182,3.189,3.189,0,0,1-.775-0.086,3.26,3.26,0,0,1-.6-0.21,2.8,2.8,0,0,1-.462-0.27q-0.2-.146-0.341-0.27l-0.242-.21a0.285,0.285,0,0,0-.164-0.085,0.248,0.248,0,0,0-.2.107l-0.2.312a4.036,4.036,0,0,0,1.259.964,3.85,3.85,0,0,0,1.713.352,3.662,3.662,0,0,0,1.366-.238,2.961,2.961,0,0,0,1.01-.651,2.792,2.792,0,0,0,.629-0.971,3.271,3.271,0,0,0,.217-1.191,2.226,2.226,0,0,0-.217-1.034,2.176,2.176,0,0,0-.573-0.7,3.379,3.379,0,0,0-.807-0.473q-0.451-.187-0.928-0.345t-0.928-.316a3.694,3.694,0,0,1-.807-0.4,1.939,1.939,0,0,1-.572-0.569,1.518,1.518,0,0,1-.217-0.846,1.934,1.934,0,0,1,.146-0.746,1.815,1.815,0,0,1,.426-0.626,2.02,2.02,0,0,1,.7-0.427,3.129,3.129,0,0,1,1.885-.021,3.1,3.1,0,0,1,.622.295,3.282,3.282,0,0,1,.395.291,0.407,0.407,0,0,0,.238.132,0.2,0.2,0,0,0,.185-0.121Zm10.077,9.166h5.191v-0.526h-2.2v-9.579h-0.533l-2.908,2.567,0.206,0.285a0.277,0.277,0,0,0,.156.085,0.226,0.226,0,0,0,.2-0.064l2.219-1.97c-0.014.181-.021,0.351-0.021,0.512v8.164h-2.311v0.526Z" transform="translate(-535 -269)"/>
</svg>
