<svg id="Icon_ISO_02" data-name="Icon ISO 02" xmlns="http://www.w3.org/2000/svg" width="162" height="162" viewBox="0 0 162 162">
  <defs>
    <style>
      .cls-1, .cls-2, .cls-3 {
        fill: none;
        stroke: #bda180;
        opacity: 0.5;
      }

      .cls-1 {
        stroke-width: 2px;
      }

      .cls-2, .cls-3 {
        stroke-width: 1px;
      }

      .cls-2, .cls-4 {
        fill-rule: evenodd;
      }

      .cls-4 {
        fill: #bda180;
      }
    </style>
  </defs>
  <circle class="cls-1" cx="81" cy="81" r="80"/>
  <circle id="Ellipse_2_copy_3" data-name="Ellipse 2 copy 3" class="cls-1" cx="81" cy="81" r="53.344"/>
  <path class="cls-2" d="M378,410.447l5.33,5.331L378,421.107l-5.33-5.329Z" transform="translate(-297 -269)"/>
  <circle class="cls-3" cx="48.11" cy="67.672" r="2.672"/>
  <circle id="Ellipse_3_copy_2" data-name="Ellipse 3 copy 2" class="cls-3" cx="114.781" cy="67.672" r="2.656"/>
  <path id="Accurate_Consultancy_Services" data-name="Accurate Consultancy Services" class="cls-4" d="M342.547,410.247l0.9,0.525,6.477-5.08-0.693-.4a0.34,0.34,0,0,0-.231-0.047,0.369,0.369,0,0,0-.192.086l-1.543,1.238-2.967-1.719,0.307-1.955a0.43,0.43,0,0,0-.023-0.217,0.344,0.344,0,0,0-.159-0.172l-0.692-.4Zm1.5-1.094a3.026,3.026,0,0,0-.261.221c-0.094.088-.191,0.182-0.292,0.285,0.036-.14.068-0.272,0.1-0.395a3.379,3.379,0,0,0,.062-0.334l0.521-3.292,2.468,1.431Zm-10.133-13.029a3.013,3.013,0,0,1,.5.029,2.1,2.1,0,0,1,.467.123,2.534,2.534,0,0,1,.463.241,4.271,4.271,0,0,1,.489.378,2.655,2.655,0,0,1,.648.841,2.369,2.369,0,0,1,.239,1,2.811,2.811,0,0,1-.206,1.08,3.675,3.675,0,0,1-.689,1.092,3.777,3.777,0,0,1-.984.818,2.736,2.736,0,0,1-1.042.347,2.361,2.361,0,0,1-1.027-.112,2.782,2.782,0,0,1-.948-0.562,2.851,2.851,0,0,1-.551-0.625,2.728,2.728,0,0,1-.267-0.544,3.618,3.618,0,0,1-.119-0.414,0.418,0.418,0,0,0-.107-0.233,0.235,0.235,0,0,0-.125-0.064,0.286,0.286,0,0,0-.12.011l-0.57.131a3.624,3.624,0,0,0,.355,1.258,3.682,3.682,0,0,0,.908,1.148,3.915,3.915,0,0,0,1.329.791,3.4,3.4,0,0,0,1.416.179,3.629,3.629,0,0,0,1.393-.422,4.452,4.452,0,0,0,1.251-1.008,4.6,4.6,0,0,0,.851-1.362,3.618,3.618,0,0,0,.265-1.412,3.284,3.284,0,0,0-.332-1.359,3.771,3.771,0,0,0-.931-1.2,3.891,3.891,0,0,0-1.416-.842,3.272,3.272,0,0,0-1.415-.117l0.016,0.6a0.194,0.194,0,0,0,.066.151,0.275,0.275,0,0,0,.189.06h0Zm-8.2-9.549a3.061,3.061,0,0,1,.489.126,2.1,2.1,0,0,1,.434.213,2.5,2.5,0,0,1,.407.326,4.386,4.386,0,0,1,.405.466,2.663,2.663,0,0,1,.472.952,2.355,2.355,0,0,1,.039,1.023,2.8,2.8,0,0,1-.413,1.019,3.673,3.673,0,0,1-.888.937,3.78,3.78,0,0,1-1.125.61,2.731,2.731,0,0,1-1.089.137,2.37,2.37,0,0,1-.986-0.311,2.785,2.785,0,0,1-.82-0.736,2.838,2.838,0,0,1-.419-0.721,2.8,2.8,0,0,1-.155-0.586,3.519,3.519,0,0,1-.036-0.429,0.429,0.429,0,0,0-.059-0.249,0.243,0.243,0,0,0-.111-0.087,0.283,0.283,0,0,0-.12-0.013l-0.584.017a3.635,3.635,0,0,0,.1,1.3,3.709,3.709,0,0,0,.665,1.3,3.938,3.938,0,0,0,1.149,1.035,3.43,3.43,0,0,0,1.355.452,3.612,3.612,0,0,0,1.448-.142,4.434,4.434,0,0,0,1.424-.745,4.616,4.616,0,0,0,1.1-1.168,3.624,3.624,0,0,0,.535-1.334,3.274,3.274,0,0,0-.06-1.4,3.783,3.783,0,0,0-.679-1.361,3.907,3.907,0,0,0-1.223-1.1,3.273,3.273,0,0,0-1.365-.391l-0.1.595a0.2,0.2,0,0,0,.035.161,0.28,0.28,0,0,0,.174.1h0Zm-4.442-8.589a1.805,1.805,0,0,1-.133.767,1.948,1.948,0,0,1-.451.652,2.716,2.716,0,0,1-.735.5l-4.187,2,0.443,0.929,4.192-2a3.479,3.479,0,0,0,1.016-.719,2.819,2.819,0,0,0,.622-0.968,2.757,2.757,0,0,0,.171-1.145,3.545,3.545,0,0,0-1.094-2.291,2.747,2.747,0,0,0-1-.585,2.863,2.863,0,0,0-1.143-.122,3.494,3.494,0,0,0-1.2.339l-4.191,2,0.443,0.929,4.192-2a2.717,2.717,0,0,1,.853-0.257,1.961,1.961,0,0,1,.791.06,1.773,1.773,0,0,1,.676.377A2.315,2.315,0,0,1,321.274,377.986ZM314.6,366.274a0.718,0.718,0,0,1-.023-0.327,0.6,0.6,0,0,1,.132-0.233l2.176-2.581a0.452,0.452,0,0,0,.112-0.456l-0.22-.89-2.411,2.891a1.182,1.182,0,0,0-.234.41,2.749,2.749,0,0,0-.478-0.7,2.276,2.276,0,0,0-.608-0.46,1.993,1.993,0,0,0-.7-0.208,2.184,2.184,0,0,0-.766.057,2.237,2.237,0,0,0-.812.371,1.708,1.708,0,0,0-.528.655,2.391,2.391,0,0,0-.2.948,4.7,4.7,0,0,0,.158,1.252l0.518,2.1,7.419-1.832-0.246-1-3.1.764Zm-3.343,1.633-0.271-1.1a2.184,2.184,0,0,1,.014-1.388,1.221,1.221,0,0,1,.892-0.681,1.549,1.549,0,0,1,.624-0.033,1.28,1.28,0,0,1,.547.224,1.63,1.63,0,0,1,.438.485,2.6,2.6,0,0,1,.3.743l0.261,1.056Zm-3.1-15.257,0.047,1.044,7.772,2.711-0.036-.8a0.341,0.341,0,0,0-.085-0.221,0.37,0.37,0,0,0-.175-0.114l-1.876-.632-0.153-3.426,1.811-.8a0.423,0.423,0,0,0,.17-0.136,0.343,0.343,0,0,0,.06-0.227l-0.036-.8Zm1.734,0.675a3.108,3.108,0,0,0-.328-0.1c-0.124-.032-0.256-0.063-0.4-0.092q0.206-.067.384-0.132c0.119-.043.224-0.086,0.314-0.129l3.053-1.338,0.127,2.851Zm-1.541-9.883,0.861,0.118,0.335-2.458,6.712,0.915,0.139-1.02-6.712-.915,0.335-2.452-0.862-.117Zm2.682-13.608,7.249,2.422,1.492-4.466-0.8-.272-1.166,3.49-2.473-.827,0.943-2.822-0.769-.257-0.943,2.823-2.408-.805,1.164-3.485-0.8-.267Zm17.564-20.2a3.084,3.084,0,0,1,.011.5,2.134,2.134,0,0,1-.088.475,2.475,2.475,0,0,1-.2.48,4.355,4.355,0,0,1-.339.516,2.654,2.654,0,0,1-.788.711,2.372,2.372,0,0,1-.975.315,2.816,2.816,0,0,1-1.093-.122,3.693,3.693,0,0,1-1.142-.6,3.773,3.773,0,0,1-.891-0.918,2.741,2.741,0,0,1-.427-1.012,2.372,2.372,0,0,1,.033-1.033,2.869,2.869,0,0,1,1.589-1.894,3.529,3.529,0,0,1,.4-0.15,0.427,0.427,0,0,0,.224-0.125,0.242,0.242,0,0,0,.054-0.13,0.287,0.287,0,0,0-.02-0.119l-0.174-.558a3.64,3.64,0,0,0-1.228.451,3.722,3.722,0,0,0-1.075.994,3.92,3.92,0,0,0-.685,1.386,3.414,3.414,0,0,0-.069,1.426,3.619,3.619,0,0,0,.528,1.356,4.463,4.463,0,0,0,1.1,1.17,4.61,4.61,0,0,0,1.423.743,3.616,3.616,0,0,0,1.429.155,3.293,3.293,0,0,0,1.329-.436,3.794,3.794,0,0,0,1.126-1.021,3.9,3.9,0,0,0,.73-1.476,3.271,3.271,0,0,0,.007-1.42l-0.6.062a0.2,0.2,0,0,0-.145.078,0.278,0.278,0,0,0-.045.193h0Zm7.579-12.909a3.644,3.644,0,0,0-1.392-.428,3.464,3.464,0,0,0-1.429.175,4.249,4.249,0,0,0-2.317,2.022,3.466,3.466,0,0,0-.365,1.391,3.652,3.652,0,0,0,.235,1.437,4.712,4.712,0,0,0,2.073,2.375,3.6,3.6,0,0,0,1.391.425,3.436,3.436,0,0,0,1.423-.177,4,4,0,0,0,1.345-.8,4.046,4.046,0,0,0,.972-1.227,3.432,3.432,0,0,0,.37-1.389,3.6,3.6,0,0,0-.233-1.435A4.692,4.692,0,0,0,336.172,296.72ZM337.3,299.5a2.685,2.685,0,0,1,.211,1.069,2.343,2.343,0,0,1-.254,1.008,3.142,3.142,0,0,1-1.684,1.469,2.347,2.347,0,0,1-1.034.117,2.657,2.657,0,0,1-1.033-.352,4.241,4.241,0,0,1-1.66-1.9,2.658,2.658,0,0,1-.211-1.072,2.4,2.4,0,0,1,.254-1.011,3.1,3.1,0,0,1,1.684-1.47,2.378,2.378,0,0,1,1.034-.113,2.679,2.679,0,0,1,1.032.356A4.251,4.251,0,0,1,337.3,299.5Zm5.083-9.7-0.468.255,3.653,6.713,0.8-.433-2.6-4.783q-0.051-.093-0.117-0.2c-0.044-.073-0.091-0.147-0.139-0.221l6.634,2.941a0.5,0.5,0,0,0,.212.048,0.441,0.441,0,0,0,.2-0.06l0.454-.248-3.653-6.712-0.8.433,2.588,4.755c0.037,0.068.079,0.14,0.125,0.214s0.095,0.15.146,0.227l-6.635-2.941a1.016,1.016,0,0,0-.112-0.039,0.337,0.337,0,0,0-.091-0.011,0.325,0.325,0,0,0-.088.017,0.845,0.845,0,0,0-.107.049h0Zm17.29-6.569a2.772,2.772,0,0,0-1.057-.287,3.225,3.225,0,0,0-1.173.151,2.714,2.714,0,0,0-.914.467,2.234,2.234,0,0,0-.569.667,1.985,1.985,0,0,0-.24.778,2.012,2.012,0,0,0,.081.795,2.045,2.045,0,0,0,.4.767,1.708,1.708,0,0,0,.564.425,2.18,2.18,0,0,0,.671.184c0.239,0.026.478,0.041,0.717,0.043l0.7,0a2.84,2.84,0,0,1,.635.069,1.309,1.309,0,0,1,.5.232,0.959,0.959,0,0,1,.318.5,1.481,1.481,0,0,1,.067.577,1.248,1.248,0,0,1-.163.511,1.4,1.4,0,0,1-.382.416,1.954,1.954,0,0,1-.6.291,2.193,2.193,0,0,1-.963.091,2.1,2.1,0,0,1-.368-0.081c-0.112-.036-0.212-0.07-0.3-0.1s-0.166-.057-0.233-0.076a0.312,0.312,0,0,0-.167-0.007,0.245,0.245,0,0,0-.118.079,0.4,0.4,0,0,0-.07.125l-0.14.557a3.178,3.178,0,0,0,1.208.388,3.306,3.306,0,0,0,1.374-.143,2.966,2.966,0,0,0,.982-0.5,2.337,2.337,0,0,0,.618-0.727,2.169,2.169,0,0,0,.25-0.879,2.578,2.578,0,0,0-.115-0.95,1.81,1.81,0,0,0-.387-0.717,1.672,1.672,0,0,0-.559-0.4,2.369,2.369,0,0,0-.67-0.181q-0.357-.043-0.72-0.054l-0.709-.018a3.122,3.122,0,0,1-.637-0.073,1.353,1.353,0,0,1-.5-0.221,0.86,0.86,0,0,1-.307-0.461,1.183,1.183,0,0,1-.052-0.472,1.04,1.04,0,0,1,.147-0.439,1.3,1.3,0,0,1,.348-0.373,1.852,1.852,0,0,1,.555-0.27,1.914,1.914,0,0,1,.626-0.1,2.514,2.514,0,0,1,.482.06,3.464,3.464,0,0,1,.352.1,0.384,0.384,0,0,0,.231.023,0.232,0.232,0,0,0,.118-0.078,0.4,0.4,0,0,0,.064-0.146Zm10.846,3.97a1.813,1.813,0,0,1-.678-0.382,1.968,1.968,0,0,1-.464-0.644,2.7,2.7,0,0,1-.226-0.861l-0.482-4.615-1.024.107,0.482,4.62a3.493,3.493,0,0,0,.337,1.2,2.84,2.84,0,0,0,.7.91,2.771,2.771,0,0,0,1.022.545,3.549,3.549,0,0,0,2.525-.263,2.766,2.766,0,0,0,.885-0.744,2.865,2.865,0,0,0,.5-1.036,3.5,3.5,0,0,0,.082-1.242l-0.482-4.62-1.024.106,0.482,4.621a2.71,2.71,0,0,1-.044.889,1.942,1.942,0,0,1-.321.725,1.775,1.775,0,0,1-.582.511A2.308,2.308,0,0,1,370.518,287.2Zm12.868-6.89-1.025-.089-0.662,7.614,4.32,0.375,0.075-.866-3.294-.286Zm9.128,1.244-0.216.842,2.4,0.616-1.683,6.561,1,0.256,1.683-6.561,2.4,0.614,0.216-.842Zm15.355,5.24-0.949-.44L400.931,292l0.726,0.337a0.339,0.339,0,0,0,.234.026,0.367,0.367,0,0,0,.183-0.1l1.425-1.373,3.111,1.444-0.129,1.975a0.429,0.429,0,0,0,.042.213,0.346,0.346,0,0,0,.174.157l0.726,0.337Zm-1.4,1.227a3.114,3.114,0,0,0,.24-0.244c0.086-.1.174-0.2,0.264-0.31-0.023.142-.043,0.276-0.06,0.4a3.3,3.3,0,0,0-.03.339l-0.221,3.325-2.588-1.2Zm11.387,4.5-0.427-.32-4.586,6.114,0.725,0.544,3.268-4.356c0.042-.057.088-0.121,0.136-0.191s0.1-.143.144-0.219l0.084,7.257a0.519,0.519,0,0,0,.043.213,0.447,0.447,0,0,0,.139.157l0.414,0.311,4.586-6.114-0.725-.544-3.249,4.33c-0.047.063-.094,0.131-0.142,0.2s-0.1.149-.147,0.227l-0.083-7.256a0.932,0.932,0,0,0-.011-0.119,0.342,0.342,0,0,0-.028-0.087,0.308,0.308,0,0,0-.052-0.073,0.853,0.853,0,0,0-.089-0.077h0Zm9.807,17.424a3.013,3.013,0,0,1-.5-0.093,2.128,2.128,0,0,1-.448-0.182,2.576,2.576,0,0,1-.428-0.3,4.261,4.261,0,0,1-.436-0.436,2.663,2.663,0,0,1-.535-0.918,2.358,2.358,0,0,1-.109-1.018,2.8,2.8,0,0,1,.343-1.045,3.683,3.683,0,0,1,.823-1,3.776,3.776,0,0,1,1.08-.685,2.763,2.763,0,0,1,1.078-.211,2.369,2.369,0,0,1,1,.244,2.872,2.872,0,0,1,1.529,1.943,3.657,3.657,0,0,1,.065.425,0.424,0.424,0,0,0,.076.245,0.237,0.237,0,0,0,.116.08,0.29,0.29,0,0,0,.121,0l0.582-.056a3.632,3.632,0,0,0-.191-1.294,3.706,3.706,0,0,0-.753-1.255,3.939,3.939,0,0,0-1.217-.955,3.428,3.428,0,0,0-1.382-.359,3.628,3.628,0,0,0-1.435.24,4.446,4.446,0,0,0-1.37.84,4.611,4.611,0,0,0-1.019,1.241,3.607,3.607,0,0,0-.443,1.367,3.283,3.283,0,0,0,.154,1.39,3.784,3.784,0,0,0,.77,1.311,3.9,3.9,0,0,0,1.3,1.016,3.262,3.262,0,0,0,1.388.3l0.062-.6a0.2,0.2,0,0,0-.046-0.158,0.273,0.273,0,0,0-.18-0.084h0Zm12.545,8-0.456-.79a0.322,0.322,0,0,0-.174-0.152,0.605,0.605,0,0,0-.21-0.033l-3.445-.023c-0.139.007-.269,0.016-0.387,0.027s-0.235.027-.347,0.046c0.073-.087.144-0.18,0.212-0.279s0.14-.207.215-0.325l1.7-3a0.594,0.594,0,0,0,.081-0.207,0.336,0.336,0,0,0-.052-0.222l-0.454-.785-2.579,4.724-2.636,1.524,0.517,0.9,2.637-1.524Zm5.883,19.525a2.751,2.751,0,0,0,.377-1.029,3.2,3.2,0,0,0-.049-1.182,2.681,2.681,0,0,0-.386-0.95,2.238,2.238,0,0,0-.616-0.625,2,2,0,0,0-.754-0.306,2.027,2.027,0,0,0-.8.012,2.051,2.051,0,0,0-.8.334,1.715,1.715,0,0,0-.473.526,2.167,2.167,0,0,0-.24.652,7.168,7.168,0,0,0-.1.711c-0.023.238-.045,0.471-0.066,0.7a2.878,2.878,0,0,1-.124.627,1.3,1.3,0,0,1-.274.482,0.957,0.957,0,0,1-.522.274,1.465,1.465,0,0,1-.58.017,1.234,1.234,0,0,1-.5-0.206,1.39,1.39,0,0,1-.383-0.417,1.988,1.988,0,0,1-.238-0.619,2.334,2.334,0,0,1-.057-0.528,2.137,2.137,0,0,1,.162-0.8c0.046-.108.089-0.2,0.129-0.289s0.071-.16.1-0.226a0.309,0.309,0,0,0,.022-0.165,0.256,0.256,0,0,0-.068-0.125,0.4,0.4,0,0,0-.119-0.08l-0.543-.188a3.2,3.2,0,0,0-.491,1.17,3.327,3.327,0,0,0,.024,1.381,2.961,2.961,0,0,0,.413,1.021,2.336,2.336,0,0,0,.671.679,2.164,2.164,0,0,0,.854.325,2.577,2.577,0,0,0,.956-0.033,1.834,1.834,0,0,0,.748-0.323,1.7,1.7,0,0,0,.449-0.523,2.394,2.394,0,0,0,.238-0.652q0.073-.351.115-0.713t0.079-.7a3.192,3.192,0,0,1,.129-0.629,1.342,1.342,0,0,1,.263-0.482,0.864,0.864,0,0,1,.486-0.267,1.191,1.191,0,0,1,.475-0.01,1.042,1.042,0,0,1,.424.184,1.289,1.289,0,0,1,.342.379,1.823,1.823,0,0,1,.221.577,1.914,1.914,0,0,1,.044.631,2.52,2.52,0,0,1-.1.475c-0.045.135-.089,0.249-0.13,0.342a0.38,0.38,0,0,0-.044.228,0.228,0.228,0,0,0,.068.124,0.394,0.394,0,0,0,.14.077Zm1.695,8.127-7.638.248,0.153,4.707,0.842-.022-0.12-3.678,2.607-.085,0.1,2.975,0.81-.026-0.1-2.975,2.538-.082,0.119,3.673,0.842-.028Zm-5.044,14a0.693,0.693,0,0,1-.105.31,0.576,0.576,0,0,1-.211.164l-3,1.541a0.453,0.453,0,0,0-.28.377l-0.141.907,3.342-1.736a1.209,1.209,0,0,0,.374-0.288,2.725,2.725,0,0,0,.17.828,2.244,2.244,0,0,0,.384.659,1.991,1.991,0,0,0,.567.464,2.357,2.357,0,0,0,1.621.214,1.7,1.7,0,0,0,.74-0.4,2.394,2.394,0,0,0,.553-0.8,4.738,4.738,0,0,0,.337-1.216l0.332-2.134-7.551-1.175-0.159,1.017,3.152,0.49Zm3.715-.215-0.174,1.117a2.182,2.182,0,0,1-.549,1.275,1.222,1.222,0,0,1-1.086.284,1.561,1.561,0,0,1-.588-0.21,1.278,1.278,0,0,1-.418-0.419,1.624,1.624,0,0,1-.217-0.617,2.6,2.6,0,0,1,.014-0.8l0.167-1.075Zm-9.8,11.522-0.318.872,6.113,5.545,0.283-.776a0.348,0.348,0,0,0,0-.24,0.386,0.386,0,0,0-.115-0.175L438.3,372.26c-0.1-.085-0.206-0.171-0.326-0.258s-0.245-.172-0.378-0.255c0.157,0.016.31,0.028,0.458,0.037s0.287,0.012.416,0.01l5.8-.176a0.442,0.442,0,0,0,.21-0.06,0.346,0.346,0,0,0,.141-0.187l0.284-.777Zm1.834,14.138,0.513-.9-6.639-3.787-0.512.9ZM425.761,392.3a3.107,3.107,0,0,1,.01-0.5,2.054,2.054,0,0,1,.106-0.471,2.48,2.48,0,0,1,.223-0.472,4.425,4.425,0,0,1,.358-0.5,2.684,2.684,0,0,1,.817-0.679,2.362,2.362,0,0,1,.986-0.276,2.815,2.815,0,0,1,1.087.165,3.692,3.692,0,0,1,1.118.647,3.8,3.8,0,0,1,.854.953,2.73,2.73,0,0,1,.386,1.028,2.35,2.35,0,0,1-.074,1.03,2.876,2.876,0,0,1-1.663,1.831,3.729,3.729,0,0,1-.409.134,0.418,0.418,0,0,0-.229.116,0.232,0.232,0,0,0-.059.127,0.273,0.273,0,0,0,.016.12l0.152,0.564a3.622,3.622,0,0,0,1.244-.4,3.707,3.707,0,0,0,1.113-.95,3.923,3.923,0,0,0,.74-1.358,3.423,3.423,0,0,0,.126-1.423,3.606,3.606,0,0,0-.475-1.375,4.458,4.458,0,0,0-1.054-1.213,4.638,4.638,0,0,0-1.393-.8,3.612,3.612,0,0,0-1.422-.211,3.29,3.29,0,0,0-1.344.382,3.773,3.773,0,0,0-1.166.977,3.893,3.893,0,0,0-.788,1.446,3.272,3.272,0,0,0-.064,1.418l0.6-.038a0.2,0.2,0,0,0,.148-0.072,0.273,0.273,0,0,0,.053-0.191h0Zm-1.441,10.079-4.891-5.873-3.618,3.014,0.535,0.651,2.828-2.355,1.669,2-2.287,1.9,0.519,0.623,2.286-1.9,1.625,1.95-2.824,2.352,0.54,0.648ZM409.991,411.4a2.763,2.763,0,0,0,1.1.057,3.235,3.235,0,0,0,1.114-.4,2.707,2.707,0,0,0,.794-0.65,2.237,2.237,0,0,0,.415-0.773,2.013,2.013,0,0,0,.07-0.811,2.2,2.2,0,0,0-.8-1.424,1.713,1.713,0,0,0-.642-0.3,2.169,2.169,0,0,0-.694-0.037,6.989,6.989,0,0,0-.71.11l-0.69.144a2.858,2.858,0,0,1-.636.067,1.324,1.324,0,0,1-.542-0.119,0.962,0.962,0,0,1-.416-0.418,1.475,1.475,0,0,1-.187-0.549,1.232,1.232,0,0,1,.051-0.534,1.37,1.37,0,0,1,.284-0.488,1.961,1.961,0,0,1,.522-0.411,2.324,2.324,0,0,1,.487-0.211,2.2,2.2,0,0,1,.435-0.082,2.151,2.151,0,0,1,.377,0c0.117,0.012.222,0.024,0.315,0.037s0.174,0.021.243,0.025a0.3,0.3,0,0,0,.165-0.029,0.247,0.247,0,0,0,.1-0.1,0.419,0.419,0,0,0,.042-0.137l0.019-.574a3.19,3.19,0,0,0-1.264-.124,3.325,3.325,0,0,0-1.312.431,2.972,2.972,0,0,0-.854.7,2.315,2.315,0,0,0-.449.842,2.166,2.166,0,0,0-.059.911,2.581,2.581,0,0,0,.314.9,1.827,1.827,0,0,0,.53.62,1.71,1.71,0,0,0,.632.274,2.352,2.352,0,0,0,.693.034q0.359-.033.715-0.1c0.238-.044.471-0.089,0.7-0.133a3.176,3.176,0,0,1,.638-0.062,1.333,1.333,0,0,1,.539.109,0.861,0.861,0,0,1,.4.385,1.19,1.19,0,0,1,.15.451,1.034,1.034,0,0,1-.05.46,1.3,1.3,0,0,1-.261.438,1.844,1.844,0,0,1-.486.381,1.917,1.917,0,0,1-.59.229,2.488,2.488,0,0,1-.484.043c-0.143,0-.264-0.011-0.365-0.023a0.385,0.385,0,0,0-.231.025,0.237,0.237,0,0,0-.1.1,0.389,0.389,0,0,0-.031.156Z" transform="translate(-297 -269)"/>
  <path id="_22000.2005" data-name="22000.2005" class="cls-4" d="M339.75,357.644a1.917,1.917,0,0,0-.624.344,1.867,1.867,0,0,0-.453.563,2.311,2.311,0,0,0-.243.771l0.414,0.071a0.41,0.41,0,0,0,.255-0.029,0.357,0.357,0,0,0,.145-0.207,1.192,1.192,0,0,1,.151-0.382,1.149,1.149,0,0,1,.264-0.3,1.23,1.23,0,0,1,.362-0.2,1.373,1.373,0,0,1,.449-0.071,1.422,1.422,0,0,1,.449.069,1,1,0,0,1,.362.207,0.964,0.964,0,0,1,.243.349,1.258,1.258,0,0,1,.089.491,1.7,1.7,0,0,1-.08.526,2.3,2.3,0,0,1-.227.487,3.457,3.457,0,0,1-.356.478c-0.139.158-.293,0.324-0.462,0.5l-2.04,2.049a0.5,0.5,0,0,0-.111.165,0.459,0.459,0,0,0-.036.173v0.271h4.249v-0.48a0.264,0.264,0,0,0-.075-0.195,0.276,0.276,0,0,0-.205-0.076h-2.133a2.265,2.265,0,0,0-.351.029,3.116,3.116,0,0,0-.36.078l1.68-1.716q0.267-.267.5-0.529a4.38,4.38,0,0,0,.42-0.538,2.575,2.575,0,0,0,.289-0.58,1.978,1.978,0,0,0,.107-0.66,1.809,1.809,0,0,0-.147-0.746,1.622,1.622,0,0,0-.4-0.558,1.761,1.761,0,0,0-.609-0.349,2.322,2.322,0,0,0-.756-0.12A2.365,2.365,0,0,0,339.75,357.644Zm8.711,0a1.917,1.917,0,0,0-.624.344,1.867,1.867,0,0,0-.453.563,2.311,2.311,0,0,0-.243.771l0.414,0.071a0.41,0.41,0,0,0,.255-0.029,0.357,0.357,0,0,0,.145-0.207,1.192,1.192,0,0,1,.151-0.382,1.149,1.149,0,0,1,.264-0.3,1.23,1.23,0,0,1,.362-0.2,1.373,1.373,0,0,1,.449-0.071,1.422,1.422,0,0,1,.449.069,1,1,0,0,1,.362.207,0.964,0.964,0,0,1,.243.349,1.258,1.258,0,0,1,.089.491,1.7,1.7,0,0,1-.08.526,2.3,2.3,0,0,1-.227.487,3.457,3.457,0,0,1-.356.478c-0.139.158-.293,0.324-0.462,0.5l-2.04,2.049a0.5,0.5,0,0,0-.111.165,0.459,0.459,0,0,0-.036.173v0.271h4.249v-0.48a0.264,0.264,0,0,0-.075-0.195,0.276,0.276,0,0,0-.2-0.076h-2.133a2.265,2.265,0,0,0-.351.029,3.116,3.116,0,0,0-.36.078l1.68-1.716q0.267-.267.5-0.529a4.38,4.38,0,0,0,.42-0.538,2.575,2.575,0,0,0,.289-0.58,1.978,1.978,0,0,0,.107-0.66,1.809,1.809,0,0,0-.147-0.746,1.622,1.622,0,0,0-.4-0.558,1.761,1.761,0,0,0-.609-0.349,2.322,2.322,0,0,0-.756-0.12A2.365,2.365,0,0,0,348.461,357.644Zm11.554,1.691a3.046,3.046,0,0,0-.492-1.016,1.956,1.956,0,0,0-.735-0.6,2.206,2.206,0,0,0-1.818,0,1.967,1.967,0,0,0-.731.6,3.043,3.043,0,0,0-.489,1.016,5.979,5.979,0,0,0,0,2.9,3.015,3.015,0,0,0,.489,1.011,1.981,1.981,0,0,0,.731.595,2.206,2.206,0,0,0,1.818,0,1.97,1.97,0,0,0,.735-0.595,3.018,3.018,0,0,0,.492-1.011A5.914,5.914,0,0,0,360.015,359.335Zm-0.765,2.671a2.446,2.446,0,0,1-.329.8,1.241,1.241,0,0,1-.478.433,1.28,1.28,0,0,1-1.128,0,1.223,1.223,0,0,1-.476-0.433,2.514,2.514,0,0,1-.327-0.8,6.2,6.2,0,0,1,0-2.447,2.5,2.5,0,0,1,.327-0.8,1.226,1.226,0,0,1,.476-0.434,1.28,1.28,0,0,1,1.128,0,1.244,1.244,0,0,1,.478.434,2.434,2.434,0,0,1,.329.8A6.2,6.2,0,0,1,359.25,362.006Zm9.476-2.671a3.046,3.046,0,0,0-.492-1.016,1.956,1.956,0,0,0-.735-0.6,2.206,2.206,0,0,0-1.818,0,1.967,1.967,0,0,0-.731.6,3.043,3.043,0,0,0-.489,1.016,5.979,5.979,0,0,0,0,2.9,3.015,3.015,0,0,0,.489,1.011,1.981,1.981,0,0,0,.731.595,2.206,2.206,0,0,0,1.818,0,1.97,1.97,0,0,0,.735-0.595,3.018,3.018,0,0,0,.492-1.011A5.914,5.914,0,0,0,368.726,359.335Zm-0.765,2.671a2.446,2.446,0,0,1-.329.8,1.241,1.241,0,0,1-.478.433,1.28,1.28,0,0,1-1.128,0,1.223,1.223,0,0,1-.476-0.433,2.514,2.514,0,0,1-.327-0.8,6.2,6.2,0,0,1,0-2.447,2.5,2.5,0,0,1,.327-0.8,1.226,1.226,0,0,1,.476-0.434,1.28,1.28,0,0,1,1.128,0,1.244,1.244,0,0,1,.478.434,2.434,2.434,0,0,1,.329.8A6.2,6.2,0,0,1,367.961,362.006Zm9.476-2.671a3.046,3.046,0,0,0-.492-1.016,1.956,1.956,0,0,0-.735-0.6,2.206,2.206,0,0,0-1.818,0,1.967,1.967,0,0,0-.731.6,3.043,3.043,0,0,0-.489,1.016,5.979,5.979,0,0,0,0,2.9,3.015,3.015,0,0,0,.489,1.011,1.981,1.981,0,0,0,.731.595,2.206,2.206,0,0,0,1.818,0,1.97,1.97,0,0,0,.735-0.595,3.018,3.018,0,0,0,.492-1.011A5.914,5.914,0,0,0,377.437,359.335Zm-0.765,2.671a2.446,2.446,0,0,1-.329.8,1.241,1.241,0,0,1-.478.433,1.28,1.28,0,0,1-1.128,0,1.223,1.223,0,0,1-.476-0.433,2.514,2.514,0,0,1-.327-0.8,6.2,6.2,0,0,1,0-2.447,2.5,2.5,0,0,1,.327-0.8,1.226,1.226,0,0,1,.476-0.434,1.28,1.28,0,0,1,1.128,0,1.244,1.244,0,0,1,.478.434,2.434,2.434,0,0,1,.329.8A6.2,6.2,0,0,1,376.672,362.006Zm5.3,1.691a0.567,0.567,0,0,0,.116.176,0.535,0.535,0,0,0,.175.118,0.566,0.566,0,0,0,.614-0.118A0.6,0.6,0,0,0,383,363.7a0.544,0.544,0,0,0,.044-0.22,0.555,0.555,0,0,0-.044-0.218,0.577,0.577,0,0,0-.12-0.177,0.559,0.559,0,0,0-.178-0.12,0.551,0.551,0,0,0-.436,0,0.525,0.525,0,0,0-.175.12,0.549,0.549,0,0,0-.116.177,0.572,0.572,0,0,0-.042.218A0.56,0.56,0,0,0,381.974,363.7Zm6.985-6.053a1.912,1.912,0,0,0-.625.344,1.867,1.867,0,0,0-.453.563,2.288,2.288,0,0,0-.242.771l0.413,0.071a0.409,0.409,0,0,0,.255-0.029,0.357,0.357,0,0,0,.145-0.207,1.192,1.192,0,0,1,.151-0.382,1.149,1.149,0,0,1,.264-0.3,1.235,1.235,0,0,1,.363-0.2,1.368,1.368,0,0,1,.449-0.071,1.416,1.416,0,0,1,.448.069,1.009,1.009,0,0,1,.363.207,0.962,0.962,0,0,1,.242.349,1.258,1.258,0,0,1,.089.491,1.7,1.7,0,0,1-.08.526,2.3,2.3,0,0,1-.227.487,3.529,3.529,0,0,1-.355.478c-0.14.158-.294,0.324-0.463,0.5l-2.04,2.049a0.5,0.5,0,0,0-.111.165,0.457,0.457,0,0,0-.035.173v0.271h4.249v-0.48a0.264,0.264,0,0,0-.076-0.195,0.274,0.274,0,0,0-.2-0.076h-2.134a2.285,2.285,0,0,0-.351.029,3.209,3.209,0,0,0-.36.078l1.68-1.716q0.267-.267.5-0.529a4.584,4.584,0,0,0,.42-0.538,2.614,2.614,0,0,0,.288-0.58,1.952,1.952,0,0,0,.107-0.66,1.809,1.809,0,0,0-.147-0.746,1.609,1.609,0,0,0-.4-0.558,1.761,1.761,0,0,0-.609-0.349,2.32,2.32,0,0,0-.755-0.12A2.36,2.36,0,0,0,388.959,357.644Zm11.553,1.691a3.064,3.064,0,0,0-.491-1.016,1.967,1.967,0,0,0-.736-0.6,2.206,2.206,0,0,0-1.818,0,1.975,1.975,0,0,0-.731.6,3.043,3.043,0,0,0-.489,1.016,6.011,6.011,0,0,0,0,2.9,3.015,3.015,0,0,0,.489,1.011,1.989,1.989,0,0,0,.731.595,2.206,2.206,0,0,0,1.818,0,1.98,1.98,0,0,0,.736-0.595,3.036,3.036,0,0,0,.491-1.011A5.914,5.914,0,0,0,400.512,359.335Zm-0.765,2.671a2.446,2.446,0,0,1-.329.8,1.239,1.239,0,0,1-.477.433,1.282,1.282,0,0,1-1.129,0,1.223,1.223,0,0,1-.476-0.433,2.492,2.492,0,0,1-.326-0.8,6.147,6.147,0,0,1,0-2.447,2.479,2.479,0,0,1,.326-0.8,1.226,1.226,0,0,1,.476-0.434,1.282,1.282,0,0,1,1.129,0,1.242,1.242,0,0,1,.477.434,2.434,2.434,0,0,1,.329.8A6.147,6.147,0,0,1,399.747,362.006Zm9.476-2.671a3.064,3.064,0,0,0-.491-1.016,1.967,1.967,0,0,0-.736-0.6,2.206,2.206,0,0,0-1.818,0,1.975,1.975,0,0,0-.731.6,3.043,3.043,0,0,0-.489,1.016,6.011,6.011,0,0,0,0,2.9,3.015,3.015,0,0,0,.489,1.011,1.989,1.989,0,0,0,.731.595,2.206,2.206,0,0,0,1.818,0,1.98,1.98,0,0,0,.736-0.595,3.036,3.036,0,0,0,.491-1.011A5.914,5.914,0,0,0,409.223,359.335Zm-0.765,2.671a2.446,2.446,0,0,1-.329.8,1.239,1.239,0,0,1-.477.433,1.282,1.282,0,0,1-1.129,0,1.223,1.223,0,0,1-.476-0.433,2.492,2.492,0,0,1-.326-0.8,6.147,6.147,0,0,1,0-2.447,2.479,2.479,0,0,1,.326-0.8,1.226,1.226,0,0,1,.476-0.434,1.282,1.282,0,0,1,1.129,0,1.242,1.242,0,0,1,.477.434,2.434,2.434,0,0,1,.329.8A6.147,6.147,0,0,1,408.458,362.006Zm9.131-4.409h-3.017l-0.512,2.978,0.5,0.147a3.2,3.2,0,0,1,.531-0.129,3.254,3.254,0,0,1,.5-0.04,1.84,1.84,0,0,1,.614.093,1.211,1.211,0,0,1,.437.262,1.064,1.064,0,0,1,.263.409,1.6,1.6,0,0,1,.086.538,1.772,1.772,0,0,1-.1.618,1.345,1.345,0,0,1-.293.473,1.314,1.314,0,0,1-.458.3,1.607,1.607,0,0,1-.6.106,1.685,1.685,0,0,1-.513-0.069,2.364,2.364,0,0,1-.376-0.153c-0.107-.056-0.2-0.107-0.271-0.153a0.39,0.39,0,0,0-.2-0.069,0.243,0.243,0,0,0-.209.115l-0.244.338a2.35,2.35,0,0,0,.337.253,2.777,2.777,0,0,0,.9.363,2.55,2.55,0,0,0,.538.055,2.578,2.578,0,0,0,.9-0.155,2.134,2.134,0,0,0,.727-0.447,2.065,2.065,0,0,0,.484-0.7,2.3,2.3,0,0,0,.176-0.916,2.177,2.177,0,0,0-.131-0.764,1.713,1.713,0,0,0-.387-0.609,1.765,1.765,0,0,0-.638-0.4,2.441,2.441,0,0,0-.88-0.147,4.1,4.1,0,0,0-.437.024,4.257,4.257,0,0,0-.478.083l0.293-1.671h2a0.486,0.486,0,0,0,.358-0.109,0.388,0.388,0,0,0,.1-0.278V357.6Z" transform="translate(-297 -269)"/>
  <path id="ISO" class="cls-4" d="M357.91,330.055h-0.916v12.578h0.916V330.055Zm18.924,1.12a4.192,4.192,0,0,0-1.417-.951,4.7,4.7,0,0,0-1.756-.311,4.154,4.154,0,0,0-1.551.271,3.459,3.459,0,0,0-1.142.72,3.027,3.027,0,0,0-.7,1.035,3.194,3.194,0,0,0-.24,1.218,2.975,2.975,0,0,0,.271,1.347,2.694,2.694,0,0,0,.715.9,4,4,0,0,0,1.009.591q0.564,0.231,1.16.418t1.16,0.382a4.625,4.625,0,0,1,1.009.484,2.352,2.352,0,0,1,.716.72,2.04,2.04,0,0,1,.271,1.1,3.075,3.075,0,0,1-.214,1.151,2.621,2.621,0,0,1-.617.929,2.911,2.911,0,0,1-.992.618,3.678,3.678,0,0,1-1.333.226,4.021,4.021,0,0,1-.969-0.106,4.131,4.131,0,0,1-.755-0.262,3.565,3.565,0,0,1-.578-0.338c-0.166-.122-0.308-0.234-0.427-0.338s-0.219-.191-0.3-0.262a0.358,0.358,0,0,0-.2-0.107,0.315,0.315,0,0,0-.249.133l-0.249.392a5.051,5.051,0,0,0,1.573,1.2,4.83,4.83,0,0,0,2.142.44,4.572,4.572,0,0,0,1.707-.3,3.681,3.681,0,0,0,1.262-.813,3.478,3.478,0,0,0,.787-1.213,4.075,4.075,0,0,0,.271-1.489,2.776,2.776,0,0,0-.271-1.294,2.713,2.713,0,0,0-.716-0.875,4.164,4.164,0,0,0-1.009-.591q-0.564-.236-1.16-0.431t-1.16-.4a4.633,4.633,0,0,1-1.008-.493,2.451,2.451,0,0,1-.716-0.711,1.909,1.909,0,0,1-.271-1.058,2.451,2.451,0,0,1,.182-0.934,2.287,2.287,0,0,1,.533-0.782,2.51,2.51,0,0,1,.872-0.533,3.895,3.895,0,0,1,2.355-.027,3.963,3.963,0,0,1,.778.369,3.8,3.8,0,0,1,.493.365,0.516,0.516,0,0,0,.3.164,0.25,0.25,0,0,0,.231-0.151Zm22.818,2.529a5.893,5.893,0,0,0-1.227-2.031,5.384,5.384,0,0,0-1.9-1.3,6.313,6.313,0,0,0-2.44-.458,6.242,6.242,0,0,0-2.436.462,5.466,5.466,0,0,0-1.893,1.3,5.847,5.847,0,0,0-1.227,2.027,8.211,8.211,0,0,0,0,5.28,5.847,5.847,0,0,0,1.227,2.027,5.414,5.414,0,0,0,1.893,1.3,6.718,6.718,0,0,0,4.876,0,5.411,5.411,0,0,0,1.9-1.3,5.847,5.847,0,0,0,1.227-2.027A8.211,8.211,0,0,0,399.652,333.7Zm-0.871,5a5.064,5.064,0,0,1-1.031,1.774,4.405,4.405,0,0,1-1.6,1.111,5.735,5.735,0,0,1-4.116,0,4.437,4.437,0,0,1-1.6-1.111,5.065,5.065,0,0,1-1.04-1.774,7.773,7.773,0,0,1,0-4.733,5.065,5.065,0,0,1,1.04-1.778,4.472,4.472,0,0,1,1.6-1.115,5.666,5.666,0,0,1,4.116,0,4.44,4.44,0,0,1,1.6,1.115,5.064,5.064,0,0,1,1.031,1.778A7.875,7.875,0,0,1,398.781,338.708Z" transform="translate(-297 -269)"/>
</svg>
