<svg width="89" height="34" viewBox="0 0 89 34" fill="none" xmlns="http://www.w3.org/2000/svg">
<path d="M0.881856 27.2195C5.63186 28.3895 7.94183 36.6895 13.8918 30.3095C22.6118 20.9595 24.6918 34.5895 30.9318 32.3595C34.9218 30.9395 35.4919 26.1395 40.5419 27.2495C43.7119 27.9395 44.9618 31.2595 47.8918 32.2895C52.6618 33.9495 54.0919 27.5595 58.7619 27.1295C65.0319 26.5595 66.0718 36.9995 73.4018 30.2195C80.8118 23.3695 82.8518 29.8195 88.5818 32.9695C88.7952 33.0828 88.8085 33.2128 88.6218 33.3595C88.2685 33.6395 87.9185 33.7062 87.5719 33.5595C85.7785 32.7795 84.0952 31.5395 82.5218 29.8395C75.9818 22.7595 72.4618 40.0995 63.7218 30.8895C57.5018 24.3295 56.2019 31.3295 51.1019 33.3095C47.7319 34.6195 45.0118 31.5895 42.7118 29.5895C36.4118 24.0995 34.1618 35.7495 27.6118 33.1995C24.6518 32.0495 23.0818 28.2595 19.8118 28.1495C14.7018 27.9795 13.6818 35.4295 7.92183 33.2995C5.48183 32.3895 3.37184 29.2995 0.27184 27.9095C-0.0681596 27.7628 -0.0915002 27.5728 0.201833 27.3395C0.381833 27.1928 0.608523 27.1528 0.881856 27.2195Z" fill="#B59A7B"/>
<path d="M0.881856 18.2195C5.63186 19.3895 7.94183 27.6895 13.8918 21.3095C22.6118 11.9595 24.6918 25.5895 30.9318 23.3595C34.9218 21.9395 35.4919 17.1395 40.5419 18.2495C43.7119 18.9395 44.9618 22.2595 47.8918 23.2895C52.6618 24.9495 54.0919 18.5595 58.7619 18.1295C65.0319 17.5595 66.0718 27.9995 73.4018 21.2195C80.8118 14.3695 82.8518 20.8195 88.5818 23.9695C88.7952 24.0828 88.8085 24.2128 88.6218 24.3595C88.2685 24.6395 87.9185 24.7062 87.5719 24.5595C85.7785 23.7795 84.0952 22.5395 82.5218 20.8395C75.9818 13.7595 72.4618 31.0995 63.7218 21.8895C57.5018 15.3295 56.2019 22.3295 51.1019 24.3095C47.7319 25.6195 45.0118 22.5895 42.7118 20.5895C36.4118 15.0995 34.1618 26.7495 27.6118 24.1995C24.6518 23.0495 23.0818 19.2595 19.8118 19.1495C14.7018 18.9795 13.6818 26.4295 7.92183 24.2995C5.48183 23.3895 3.37184 20.2995 0.27184 18.9095C-0.0681596 18.7628 -0.0915002 18.5728 0.201833 18.3395C0.381833 18.1928 0.608523 18.1528 0.881856 18.2195Z" fill="#B59A7B"/>
<path d="M0.881856 9.21949C5.63186 10.3895 7.94183 18.6895 13.8918 12.3095C22.6118 2.95949 24.6918 16.5895 30.9318 14.3595C34.9218 12.9395 35.4919 8.13949 40.5419 9.24949C43.7119 9.93949 44.9618 13.2595 47.8918 14.2895C52.6618 15.9495 54.0919 9.55949 58.7619 9.12949C65.0319 8.55949 66.0718 18.9995 73.4018 12.2195C80.8118 5.36949 82.8518 11.8195 88.5818 14.9695C88.7952 15.0828 88.8085 15.2128 88.6218 15.3595C88.2685 15.6395 87.9185 15.7062 87.5719 15.5595C85.7785 14.7795 84.0952 13.5395 82.5218 11.8395C75.9818 4.75949 72.4618 22.0995 63.7218 12.8895C57.5018 6.32949 56.2019 13.3295 51.1019 15.3095C47.7319 16.6195 45.0118 13.5895 42.7118 11.5895C36.4118 6.09949 34.1618 17.7495 27.6118 15.1995C24.6518 14.0495 23.0818 10.2595 19.8118 10.1495C14.7018 9.97948 13.6818 17.4295 7.92183 15.2995C5.48183 14.3895 3.37184 11.2995 0.27184 9.90949C-0.0681596 9.76283 -0.0915002 9.57282 0.201833 9.33949C0.381833 9.19282 0.608523 9.15282 0.881856 9.21949Z" fill="#B59A7B"/>
<path d="M0.881856 0.219491C5.63186 1.38949 7.94183 9.68949 13.8918 3.30949C22.6118 -6.04051 24.6918 7.58949 30.9318 5.35949C34.9218 3.93949 35.4919 -0.86051 40.5419 0.24949C43.7119 0.93949 44.9618 4.25948 47.8918 5.28948C52.6618 6.94948 54.0919 0.559495 58.7619 0.129495C65.0319 -0.440505 66.0718 9.99949 73.4018 3.21949C80.8118 -3.63051 82.8518 2.81949 88.5818 5.96949C88.7952 6.08282 88.8085 6.21282 88.6218 6.35949C88.2685 6.63949 87.9185 6.70615 87.5719 6.55949C85.7785 5.77949 84.0952 4.53949 82.5218 2.83949C75.9818 -4.24051 72.4618 13.0995 63.7218 3.88949C57.5018 -2.67051 56.2019 4.32949 51.1019 6.30949C47.7319 7.61949 45.0118 4.58949 42.7118 2.58949C36.4118 -2.90051 34.1618 8.74949 27.6118 6.19949C24.6518 5.04949 23.0818 1.25948 19.8118 1.14948C14.7018 0.979484 13.6818 8.42949 7.92183 6.29949C5.48183 5.38949 3.37184 2.29949 0.27184 0.909494C-0.0681596 0.762827 -0.0915002 0.57282 0.201833 0.339486C0.381833 0.19282 0.608523 0.152824 0.881856 0.219491Z" fill="#B59A7B"/>
</svg>
